<svg xmlns="http://www.w3.org/2000/svg" width="1020" height="552" viewBox="0 0 1020 552" xmlns:c2pa="http://c2pa.org/manifest"><metadata><c2pa:manifest>AAAWgmp1bWIAAAAeanVtZGMycGEAEQAQgAAAqgA4m3EDYzJwYQAAABZcanVtYgAAAEdqdW1kYzJtYQARABCAAACqADibcQN1cm46YzJwYTpkYjk4NDQwZi00MWMzLTQzNjUtOTVhZC1iNzYxOGI0ZmU3NGMAAAADl2p1bWIAAAApanVtZGMyYXMAEQAQgAAAqgA4m3EDYzJwYS5hc3NlcnRpb25zAAAAALxqdW1iAAAARGp1bWRjYm9yABEAEIAAAKoAOJtxE2MycGEuaW5ncmVkaWVudC52MwAAAAAYYzJzaIv5BHKGWGHPto026NKhmUEAAABwY2JvcqNpZGM6Zm9ybWF0bWltYWdlL3N2Zyt4bWxqaW5zdGFuY2VJRHgseG1wOmlpZDo1OTU0MmZmYi00NTUwLTQ1MGUtOGUxNS0yODg5NGRmZDRiZGFscmVsYXRpb25zaGlwaHBhcmVudE9mAAAB4mp1bWIAAABBanVtZGNib3IAEQAQgAAAqgA4m3ETYzJwYS5hY3Rpb25zLnYyAAAAABhjMnNoZNe/jyID/NPInnCemgx7tgAAAZljYm9yomdhY3Rpb25zgqJmYWN0aW9ua2MycGEub3BlbmVkanBhcmFtZXRlcnOha2luZ3JlZGllbnRzgaJjdXJseC1zZWxmI2p1bWJmPWMycGEuYXNzZXJ0aW9ucy9jMnBhLmluZ3JlZGllbnQudjNkaGFzaFggG8Ylq+BoCcSEESPX6C2Od7G0gnEuiuIMF4nkRxsPD/mkZmFjdGlvbngdY29tLmFudGhyb3BpYy5jbGF1ZGUucHJvdmlkZWRqcGFyYW1ldGVyc6F4H2NvbS5hbnRocm9waWMub3JpZ2luLWNvbmZpZGVuY2VndW5rbm93bmtkZXNjcmlwdGlvbnhmQ2xhdWRlIHByb3ZpZGVkIHRoaXMgZmlsZSBhdCB0aGUgcmVxdWVzdCBvZiBhIHVzZXIgYW5kIG1heSBoYXZlIGNyZWF0ZWQgb3IgbW9kaWZpZWQgdGhlIGZpbGUgY29udGVudHMubXNvZnR3YXJlQWdlbnShZG5hbWVmQ2xhdWRlcmFsbEFjdGlvbnNJbmNsdWRlZPUAAADIanVtYgAAAEBqdW1kY2JvcgARABCAAACqADibcRNjMnBhLmhhc2guZGF0YQAAAAAYYzJzaGgUDelLBp6Ikyj9mcUG/WwAAACAY2JvcqVjYWxnZnNoYTI1NmNwYWRNAAAAAAAAAAAAAAAAAGRoYXNoWCDgYQ1FB41jmpfecozAfK0Wtf9+5dDYwHL8qvOnsRXscWRuYW1lbmp1bWJmIG1hbmlmZXN0amV4Y2x1c2lvbnOBomVzdGFydBiYZmxlbmd0aBkeBAAAAj5qdW1iAAAAJ2p1bWRjMmNsABEAEIAAAKoAOJtxA2MycGEuY2xhaW0udjIAAAACD2Nib3KlY2FsZ2ZzaGEyNTZpc2lnbmF0dXJleE1zZWxmI2p1bWJmPS9jMnBhL3VybjpjMnBhOmRiOTg0NDBmLTQxYzMtNDM2NS05NWFkLWI3NjE4YjRmZTc0Yy9jMnBhLnNpZ25hdHVyZWppbnN0YW5jZUlEeCx4bXA6aWlkOmMzNzhkYjJjLWQxMWItNGQ2Mi05Y2JhLWRiOTJjZjZhN2Y5ZnJjcmVhdGVkX2Fzc2VydGlvbnODomN1cmx4LXNlbGYjanVtYmY9YzJwYS5hc3NlcnRpb25zL2MycGEuaW5ncmVkaWVudC52M2RoYXNoWCAbxiWr4GgJxIQRI9foLY53sbSCcS6K4gwXieRHGw8P+aJjdXJseCpzZWxmI2p1bWJmPWMycGEuYXNzZXJ0aW9ucy9jMnBhLmFjdGlvbnMudjJkaGFzaFgg+bkxpYLZtua6/c+gnxDjfDLpphKDHFi9YQZzsoKyN8+iY3VybHgpc2VsZiNqdW1iZj1jMnBhLmFzc2VydGlvbnMvYzJwYS5oYXNoLmRhdGFkaGFzaFgg4zeUwwyyffj2D6Nir4+cSsr7hrcdJ0s2vqa9bxTkHM50Y2xhaW1fZ2VuZXJhdG9yX2luZm+jZG5hbWVvQW50aHJvcGljIEZpbGVzZ3ZlcnNpb25lMS4wLjBrc3BlY1ZlcnNpb25lMi40LjAAABA4anVtYgAAAChqdW1kYzJjcwARABCAAACqADibcQNjMnBhLnNpZ25hdHVyZQAAABAIY2JvctKEWQISogEmGCFZAgowggIGMIIBjaADAgECAhRA5aAK7sI50L64g/oGQgU9Z1UTADAKBggqhkjOPQQDAzBJMRcwFQYDVQQKEw5BbnRocm9waWMsIFBCQzEuMCwGA1UEAxMlQW50aHJvcGljIENvbnRlbnQgQ3JlZGVudGlhbHMgUm9vdCBDQTAeFw0yNjA4MDcxODQzNTZaFw0yODA4MDYxOTQzNTZaMEQxFzAVBgNVBAoTDkFudGhyb3BpYywgUEJDMSkwJwYDVQQDEyBBbnRocm9waWMgQ2xhdWRlIENvbnRlbnQgU2lnbmluZzBZMBMGByqGSM49AgEGCCqGSM49AwEHA0IABJh6CmvLUBgFFNU0vUKlOVtE6djd17L5SuwX0LemFisBM3dkd/3cyjxFA3Qo5S46fX0/ihY0VZ7mfb9KF703t5OjWDBWMA4GA1UdDwEB/wQEAwIHgDAVBgNVHSUEDjAMBgorBgEEAYPoXgIBMAwGA1UdEwEB/wQCMAAwHwYDVR0jBBgwFoAUzlHiBIFOZFsj+OPEz5o+nMHXXMIwCgYIKoZIzj0EAwMDZwAwZAIwMXMdFJ4BetLLVY7ORuE9noqbbAZOZn/aArXyTwFAZfKrPzxF2vPoJNf1+UCdg1XGAjBwX1zd9WGqYkqmL5SFqw1QySjr1zJfpJM9+1rdDwSPLMOPOjKuiXjoU/pUUeG9RwmhY3BhZFkNngAAAAAAAAAAAAAAAAAAAAAAAAAAAAAAAAAAAAAAAAAAAAAAAAAAAAAAAAAAAAAAAAAAAAAAAAAAAAAAAAAAAAAAAAAAAAAAAAAAAAAAAAAAAAAAAAAAAAAAAAAAAAAAAAAAAAAAAAAAAAAAAAAAAAAAAAAAAAAAAAAAAAAAAAAAAAAAAAAAAAAAAAAAAAAAAAAAAAAAAAAAAAAAAAAAAAAAAAAAAAAAAAAAAAAAAAAAAAAAAAAAAAAAAAAAAAAAAAAAAAAAAAAAAAAAAAAAAAAAAAAAAAAAAAAAAAAAAAAAAAAAAAAAAAAAAAAAAAAAAAAAAAAAAAAAAAAAAAAAAAAAAAAAAAAAAAAAAAAAAAAAAAAAAAAAAAAAAAAAAAAAAAAAAAAAAAAAAAAAAAAAAAAAAAAAAAAAAAAAAAAAAAAAAAAAAAAAAAAAAAAAAAAAAAAAAAAAAAAAAAAAAAAAAAAAAAAAAAAAAAAAAAAAAAAAAAAAAAAAAAAAAAAAAAAAAAAAAAAAAAAAAAAAAAAAAAAAAAAAAAAAAAAAAAAAAAAAAAAAAAAAAAAAAAAAAAAAAAAAAAAAAAAAAAAAAAAAAAAAAAAAAAAAAAAAAAAAAAAAAAAAAAAAAAAAAAAAAAAAAAAAAAAAAAAAAAAAAAAAAAAAAAAAAAAAAAAAAAAAAAAAAAAAAAAAAAAAAAAAAAAAAAAAAAAAAAAAAAAAAAAAAAAAAAAAAAAAAAAAAAAAAAAAAAAAAAAAAAAAAAAAAAAAAAAAAAAAAAAAAAAAAAAAAAAAAAAAAAAAAAAAAAAAAAAAAAAAAAAAAAAAAAAAAAAAAAAAAAAAAAAAAAAAAAAAAAAAAAAAAAAAAAAAAAAAAAAAAAAAAAAAAAAAAAAAAAAAAAAAAAAAAAAAAAAAAAAAAAAAAAAAAAAAAAAAAAAAAAAAAAAAAAAAAAAAAAAAAAAAAAAAAAAAAAAAAAAAAAAAAAAAAAAAAAAAAAAAAAAAAAAAAAAAAAAAAAAAAAAAAAAAAAAAAAAAAAAAAAAAAAAAAAAAAAAAAAAAAAAAAAAAAAAAAAAAAAAAAAAAAAAAAAAAAAAAAAAAAAAAAAAAAAAAAAAAAAAAAAAAAAAAAAAAAAAAAAAAAAAAAAAAAAAAAAAAAAAAAAAAAAAAAAAAAAAAAAAAAAAAAAAAAAAAAAAAAAAAAAAAAAAAAAAAAAAAAAAAAAAAAAAAAAAAAAAAAAAAAAAAAAAAAAAAAAAAAAAAAAAAAAAAAAAAAAAAAAAAAAAAAAAAAAAAAAAAAAAAAAAAAAAAAAAAAAAAAAAAAAAAAAAAAAAAAAAAAAAAAAAAAAAAAAAAAAAAAAAAAAAAAAAAAAAAAAAAAAAAAAAAAAAAAAAAAAAAAAAAAAAAAAAAAAAAAAAAAAAAAAAAAAAAAAAAAAAAAAAAAAAAAAAAAAAAAAAAAAAAAAAAAAAAAAAAAAAAAAAAAAAAAAAAAAAAAAAAAAAAAAAAAAAAAAAAAAAAAAAAAAAAAAAAAAAAAAAAAAAAAAAAAAAAAAAAAAAAAAAAAAAAAAAAAAAAAAAAAAAAAAAAAAAAAAAAAAAAAAAAAAAAAAAAAAAAAAAAAAAAAAAAAAAAAAAAAAAAAAAAAAAAAAAAAAAAAAAAAAAAAAAAAAAAAAAAAAAAAAAAAAAAAAAAAAAAAAAAAAAAAAAAAAAAAAAAAAAAAAAAAAAAAAAAAAAAAAAAAAAAAAAAAAAAAAAAAAAAAAAAAAAAAAAAAAAAAAAAAAAAAAAAAAAAAAAAAAAAAAAAAAAAAAAAAAAAAAAAAAAAAAAAAAAAAAAAAAAAAAAAAAAAAAAAAAAAAAAAAAAAAAAAAAAAAAAAAAAAAAAAAAAAAAAAAAAAAAAAAAAAAAAAAAAAAAAAAAAAAAAAAAAAAAAAAAAAAAAAAAAAAAAAAAAAAAAAAAAAAAAAAAAAAAAAAAAAAAAAAAAAAAAAAAAAAAAAAAAAAAAAAAAAAAAAAAAAAAAAAAAAAAAAAAAAAAAAAAAAAAAAAAAAAAAAAAAAAAAAAAAAAAAAAAAAAAAAAAAAAAAAAAAAAAAAAAAAAAAAAAAAAAAAAAAAAAAAAAAAAAAAAAAAAAAAAAAAAAAAAAAAAAAAAAAAAAAAAAAAAAAAAAAAAAAAAAAAAAAAAAAAAAAAAAAAAAAAAAAAAAAAAAAAAAAAAAAAAAAAAAAAAAAAAAAAAAAAAAAAAAAAAAAAAAAAAAAAAAAAAAAAAAAAAAAAAAAAAAAAAAAAAAAAAAAAAAAAAAAAAAAAAAAAAAAAAAAAAAAAAAAAAAAAAAAAAAAAAAAAAAAAAAAAAAAAAAAAAAAAAAAAAAAAAAAAAAAAAAAAAAAAAAAAAAAAAAAAAAAAAAAAAAAAAAAAAAAAAAAAAAAAAAAAAAAAAAAAAAAAAAAAAAAAAAAAAAAAAAAAAAAAAAAAAAAAAAAAAAAAAAAAAAAAAAAAAAAAAAAAAAAAAAAAAAAAAAAAAAAAAAAAAAAAAAAAAAAAAAAAAAAAAAAAAAAAAAAAAAAAAAAAAAAAAAAAAAAAAAAAAAAAAAAAAAAAAAAAAAAAAAAAAAAAAAAAAAAAAAAAAAAAAAAAAAAAAAAAAAAAAAAAAAAAAAAAAAAAAAAAAAAAAAAAAAAAAAAAAAAAAAAAAAAAAAAAAAAAAAAAAAAAAAAAAAAAAAAAAAAAAAAAAAAAAAAAAAAAAAAAAAAAAAAAAAAAAAAAAAAAAAAAAAAAAAAAAAAAAAAAAAAAAAAAAAAAAAAAAAAAAAAAAAAAAAAAAAAAAAAAAAAAAAAAAAAAAAAAAAAAAAAAAAAAAAAAAAAAAAAAAAAAAAAAAAAAAAAAAAAAAAAAAAAAAAAAAAAAAAAAAAAAAAAAAAAAAAAAAAAAAAAAAAAAAAAAAAAAAAAAAAAAAAAAAAAAAAAAAAAAAAAAAAAAAAAAAAAAAAAAAAAAAAAAAAAAAAAAAAAAAAAAAAAAAAAAAAAAAAAAAAAAAAAAAAAAAAAAAAAAAAAAAAAAAAAAAAAAAAAAAAAAAAAAAAAAAAAAAAAAAAAAAAAAAAAAAAAAAAAAAAAAAAAAAAAAAAAAAAAAAAAAAAAAAAAAAAAAAAAAAAAAAAAAAAAAAAAAAAAAAAAAAAAAAAAAAAAAAAAAAAAAAAAAAAAAAAAAAAAAAAAAAAAAAAAAAAAAAAAAAAAAAAAAAAAAAAAAAAAAAAAAAAAAAAAAAAAAAAAAAAAAAAAAAAAAAAAAAAAAAAAAAAAAAAAAAAAAAAAAAAAAAAAAAAAAAAAAAAAAAAAAAAAAAAAAAAAAAAAAAAAAAAAAAAAAAAAAAAAAAAAAAAAAAAAAAAAAAAAAAAAAAAAAAAAAAAAAAAAAAAAAAAAAAAAAAAAAAAAAAAAAAAAAAAAAAAAAAAAAAAAAAAAAAAAAAAAAAAAAAAAAAAAAAAAAAAAAAAAAAAAAAAAAAAAAAAAAAAAAAAAAAAAAAAAAAAAAAAAAAAAAAAAAAAAAAAAAAAAAAAAAAAAAAAAAAAAAAAAAAAAAAAAAAAAAAAAAAAAAAAAAAAAAAAAAAAAAAAAAAAAAAAAAAAAAAAAAAAAAAAAAAAAAAAAAAAAAAAAAAAAAAAAAAAAAAAAAAAAAAAAAAAAAAAAAAAAAAAAAAAAAAAAAAAAAAAAAAAAAAAAAAAAAAAAAAAAAAAAAAAAAAAAAAAAAAAAAAAAAAAAAAAAAAAAAAAAAAAAAAAAAAAAAAAAAAAAAAAAAAAAAAAAAAAAAAAAAAAAAAAAAAAAAAAAAAAAAAAAAAAAAAAAAAAAAAAAAAAAAAAAAAAAAAAAAAAAAAAAAAAAAAAAAAAAAAAAAAAAAAAAAAAAAAAAAAAAAAAAAAAAAAAAAAAAAAAAAAAAAAAAAAAAAAAAAAAAAAAAAAAAAAAAAAAAAAAAAAAAAAAAAAAAAAAAAAAAAAAAAAAAAAAAAAAAAAAAAAAAAAAAAAAAAAAAAAAAAAAAAAAAAAAAAAAAAAAAAAAAAAAAAAAAAAAAAAAAAAAAAAAAAAAAAAAAAAAAAAAAAAAAAAAAAAAAAAAAAAAAAAAAAAAAAAAAAAAAAAAAAAAAAAAAAAAAAAAAAAAAAAAAAAAAAAAAAAAAAAAAAAAAAAAAAAAAAAAAAAAAAAAAAAAAAAAAAAAAAAAAAAAAAAAAAAAAAAAAAAAAAAAAAAAAAAAAAAAAAAAAAAAAAAAAAAAAAAAAAAAAAAAAAAAAAAAAAAAAAAAAAAAAAAAAAAAAAAAAAAAAAAAAAAAAAAAAAAAAAAAAAAAAAAAAAAAAAAAAAAAAAAAAAAAAAAAAAAAAAAAAAAAAAAAAAAAAAAAAAAAAAAAAAAAAAAAAAAAAAAAAAAAAAAAAAAAAAAAAAAAAAAAAAAAAAAAAAAAAAAAAAAAAAAAAAAAAAAAAAAAAAAAAAAAAAAAAAAAAAAAAAAAAAAAAAAAAAAAAAAAAAAAAAAAAAAAAAAAAAAAAAAAAAAAAAAAAAAAAAAAAAAAAAAAAAAAAAAAAAAAAAAAAAAAAAAAAAAAAAAAAAAAAAAAAAAAAAAAAAAAAAAAAAAAAAAAAAAAAAAAAAAAAAAAAAAAAAAAAAAAAAAAAAAAAAAAAAAAAAAPZYQCAZj4kzmUk9+SX3vkYj8ClReB5bXMYVkPyAuoDHuIpFm0eQG4ryBbV4F/lmYLDFn4jg62zn1VrlwyBm6nbVcyc=</c2pa:manifest></metadata><defs><clipPath id="sdclip0"><rect x="0" y="0" width="510" height="430"/></clipPath><clipPath id="sdclip1"><rect x="0" y="0" width="510" height="430"/></clipPath></defs><rect width="1020" height="552" fill="#FFFFFF"/><text x="510.0" y="34" font-family="'Noto Sans CJK TC','Noto Sans TC','Microsoft JhengHei','PingFang TC','Heiti TC',sans-serif" font-size="17.5" fill="#1F2733" text-anchor="middle" font-weight="700">延長週期一定要付位移的代價；阻尼是唯一能把代價收回來的東西</text><text x="510.0" y="58" font-family="'Noto Sans CJK TC','Noto Sans TC','Microsoft JhengHei','PingFang TC','Heiti TC',sans-serif" font-size="13" fill="#6B7684" text-anchor="middle">同一棟建築、同一張譜：力從 0.600 g → 0.198 g，但位移從 9.5 cm → 28.8 cm，必須再靠阻尼壓回 18.4 cm</text><g transform="translate(0,76)" clip-path="url(#sdclip0)"><rect width="510" height="430" fill="#FFFFFF"/><rect x="6" y="6" width="498" height="418" rx="14" fill="#F5F7FA" stroke="#E1E6ED" stroke-width="1.2"/><text x="255.00" y="32.00" font-family="'Noto Sans CJK TC','Noto Sans TC','Microsoft JhengHei','PingFang TC','Heiti TC',sans-serif" font-size="15.5" fill="#1F2733" text-anchor="middle" dominant-baseline="middle" font-weight="700">加速度（力）：週期愈長愈小</text><text x="255.00" y="55.00" font-family="'Noto Sans CJK TC','Noto Sans TC','Microsoft JhengHei','PingFang TC','Heiti TC',sans-serif" font-size="12.5" fill="#6B7684" text-anchor="middle" dominant-baseline="middle" font-weight="400">Sa 在等速度段與 T 成反比</text><rect x="78" y="106" width="388" height="212" rx="0" fill="#FFFFFF" stroke="#E1E6ED" stroke-width="1.2"/><line x1="78.00" y1="318.00" x2="78.00" y2="106.00" stroke="#E1E6ED" stroke-width="1" stroke-linecap="round" stroke-dasharray="3 4" opacity="1.0"/><line x1="78.00" y1="318.00" x2="78.00" y2="323.00" stroke="#6B7684" stroke-width="1.2" stroke-linecap="round" opacity="1.0"/><text x="78.00" y="336.00" font-family="'Noto Sans CJK TC','Noto Sans TC','Microsoft JhengHei','PingFang TC','Heiti TC',sans-serif" font-size="12.5" fill="#6B7684" text-anchor="middle" dominant-baseline="middle" font-weight="400">0</text><line x1="175.00" y1="318.00" x2="175.00" y2="106.00" stroke="#E1E6ED" stroke-width="1" stroke-linecap="round" stroke-dasharray="3 4" opacity="1.0"/><line x1="175.00" y1="318.00" x2="175.00" y2="323.00" stroke="#6B7684" stroke-width="1.2" stroke-linecap="round" opacity="1.0"/><text x="175.00" y="336.00" font-family="'Noto Sans CJK TC','Noto Sans TC','Microsoft JhengHei','PingFang TC','Heiti TC',sans-serif" font-size="12.5" fill="#6B7684" text-anchor="middle" dominant-baseline="middle" font-weight="400">1</text><line x1="272.00" y1="318.00" x2="272.00" y2="106.00" stroke="#E1E6ED" stroke-width="1" stroke-linecap="round" stroke-dasharray="3 4" opacity="1.0"/><line x1="272.00" y1="318.00" x2="272.00" y2="323.00" stroke="#6B7684" stroke-width="1.2" stroke-linecap="round" opacity="1.0"/><text x="272.00" y="336.00" font-family="'Noto Sans CJK TC','Noto Sans TC','Microsoft JhengHei','PingFang TC','Heiti TC',sans-serif" font-size="12.5" fill="#6B7684" text-anchor="middle" dominant-baseline="middle" font-weight="400">2</text><line x1="369.00" y1="318.00" x2="369.00" y2="106.00" stroke="#E1E6ED" stroke-width="1" stroke-linecap="round" stroke-dasharray="3 4" opacity="1.0"/><line x1="369.00" y1="318.00" x2="369.00" y2="323.00" stroke="#6B7684" stroke-width="1.2" stroke-linecap="round" opacity="1.0"/><text x="369.00" y="336.00" font-family="'Noto Sans CJK TC','Noto Sans TC','Microsoft JhengHei','PingFang TC','Heiti TC',sans-serif" font-size="12.5" fill="#6B7684" text-anchor="middle" dominant-baseline="middle" font-weight="400">3</text><line x1="466.00" y1="318.00" x2="466.00" y2="106.00" stroke="#E1E6ED" stroke-width="1" stroke-linecap="round" stroke-dasharray="3 4" opacity="1.0"/><line x1="466.00" y1="318.00" x2="466.00" y2="323.00" stroke="#6B7684" stroke-width="1.2" stroke-linecap="round" opacity="1.0"/><text x="466.00" y="336.00" font-family="'Noto Sans CJK TC','Noto Sans TC','Microsoft JhengHei','PingFang TC','Heiti TC',sans-serif" font-size="12.5" fill="#6B7684" text-anchor="middle" dominant-baseline="middle" font-weight="400">4</text><line x1="78.00" y1="318.00" x2="466.00" y2="318.00" stroke="#E1E6ED" stroke-width="1" stroke-linecap="round" stroke-dasharray="3 4" opacity="1.0"/><line x1="78.00" y1="318.00" x2="73.00" y2="318.00" stroke="#6B7684" stroke-width="1.2" stroke-linecap="round" opacity="1.0"/><text x="68.00" y="318.00" font-family="'Noto Sans CJK TC','Noto Sans TC','Microsoft JhengHei','PingFang TC','Heiti TC',sans-serif" font-size="12.5" fill="#6B7684" text-anchor="end" dominant-baseline="middle" font-weight="400">0.0</text><line x1="78.00" y1="270.89" x2="466.00" y2="270.89" stroke="#E1E6ED" stroke-width="1" stroke-linecap="round" stroke-dasharray="3 4" opacity="1.0"/><line x1="78.00" y1="270.89" x2="73.00" y2="270.89" stroke="#6B7684" stroke-width="1.2" stroke-linecap="round" opacity="1.0"/><text x="68.00" y="270.89" font-family="'Noto Sans CJK TC','Noto Sans TC','Microsoft JhengHei','PingFang TC','Heiti TC',sans-serif" font-size="12.5" fill="#6B7684" text-anchor="end" dominant-baseline="middle" font-weight="400">0.2</text><line x1="78.00" y1="223.78" x2="466.00" y2="223.78" stroke="#E1E6ED" stroke-width="1" stroke-linecap="round" stroke-dasharray="3 4" opacity="1.0"/><line x1="78.00" y1="223.78" x2="73.00" y2="223.78" stroke="#6B7684" stroke-width="1.2" stroke-linecap="round" opacity="1.0"/><text x="68.00" y="223.78" font-family="'Noto Sans CJK TC','Noto Sans TC','Microsoft JhengHei','PingFang TC','Heiti TC',sans-serif" font-size="12.5" fill="#6B7684" text-anchor="end" dominant-baseline="middle" font-weight="400">0.4</text><line x1="78.00" y1="176.67" x2="466.00" y2="176.67" stroke="#E1E6ED" stroke-width="1" stroke-linecap="round" stroke-dasharray="3 4" opacity="1.0"/><line x1="78.00" y1="176.67" x2="73.00" y2="176.67" stroke="#6B7684" stroke-width="1.2" stroke-linecap="round" opacity="1.0"/><text x="68.00" y="176.67" font-family="'Noto Sans CJK TC','Noto Sans TC','Microsoft JhengHei','PingFang TC','Heiti TC',sans-serif" font-size="12.5" fill="#6B7684" text-anchor="end" dominant-baseline="middle" font-weight="400">0.6</text><line x1="78.00" y1="129.56" x2="466.00" y2="129.56" stroke="#E1E6ED" stroke-width="1" stroke-linecap="round" stroke-dasharray="3 4" opacity="1.0"/><line x1="78.00" y1="129.56" x2="73.00" y2="129.56" stroke="#6B7684" stroke-width="1.2" stroke-linecap="round" opacity="1.0"/><text x="68.00" y="129.56" font-family="'Noto Sans CJK TC','Noto Sans TC','Microsoft JhengHei','PingFang TC','Heiti TC',sans-serif" font-size="12.5" fill="#6B7684" text-anchor="end" dominant-baseline="middle" font-weight="400">0.8</text><text x="272.00" y="362.00" font-family="'Noto Sans CJK TC','Noto Sans TC','Microsoft JhengHei','PingFang TC','Heiti TC',sans-serif" font-size="13.5" fill="#1F2733" text-anchor="middle" dominant-baseline="middle" font-weight="400">T (s)</text><text x="74.00" y="91.00" font-family="'Noto Sans CJK TC','Noto Sans TC','Microsoft JhengHei','PingFang TC','Heiti TC',sans-serif" font-size="13.5" fill="#1F2733" text-anchor="start" dominant-baseline="middle" font-weight="400">Sa (g)</text><polyline points="79.94,129.56 81.55,129.56 83.16,129.56 84.77,129.56 86.37,129.56 87.98,129.56 89.59,129.56 91.20,129.56 92.81,129.56 94.42,129.56 96.03,129.56 97.63,129.56 99.24,129.56 100.85,129.56 102.46,129.56 104.07,129.56 105.68,129.56 107.29,129.56 108.89,129.56 110.50,129.56 112.11,129.56 113.72,129.56 115.33,129.56 116.94,129.56 118.55,129.56 120.15,129.56 121.76,129.56 123.37,129.56 124.98,129.56 126.59,129.56 128.20,129.56 129.81,129.56 131.41,129.56 133.02,129.56 134.63,129.56 136.24,129.69 137.85,134.75 139.46,139.54 141.07,144.10 142.67,148.42 144.28,152.54 145.89,156.46 147.50,160.20 149.11,163.77 150.72,167.18 152.33,170.44 153.93,173.57 155.54,176.56 157.15,179.44 158.76,182.20 160.37,184.85 161.98,187.40 163.59,189.85 165.19,192.22 166.80,194.50 168.41,196.69 170.02,198.82 171.63,200.86 173.24,202.84 174.85,204.75 176.45,206.60 178.06,208.40 179.67,210.13 181.28,211.81 182.89,213.44 184.50,215.02 186.11,216.55 187.72,218.04 189.32,219.48 190.93,220.88 192.54,222.25 194.15,223.57 195.76,224.86 197.37,226.12 198.98,227.34 200.58,228.53 202.19,229.69 203.80,230.82 205.41,231.92 207.02,232.99 208.63,234.04 210.24,235.06 211.84,236.06 213.45,237.03 215.06,237.98 216.67,238.91 218.28,239.82 219.89,240.70 221.50,241.57 223.10,242.42 224.71,243.25 226.32,244.06 227.93,244.85 229.54,245.63 231.15,246.39 232.76,247.13 234.36,247.86 235.97,248.57 237.58,249.27 239.19,249.96 240.80,250.63 242.41,251.29 244.02,251.94 245.62,252.57 247.23,253.19 248.84,253.80 250.45,254.40 252.06,254.99 253.67,255.57 255.28,256.13 256.88,256.69 258.49,257.24 260.10,257.77 261.71,258.30 263.32,258.82 264.93,259.33 266.54,259.83 268.14,260.32 269.75,260.80 271.36,261.28 272.97,261.75 274.58,262.21 276.19,262.66 277.80,263.11 279.40,263.55 281.01,263.98 282.62,264.40 284.23,264.82 285.84,265.23 287.45,265.64 289.06,266.04 290.66,266.43 292.27,266.82 293.88,267.20 295.49,267.57 297.10,267.94 298.71,268.31 300.32,268.67 301.92,269.02 303.53,269.37 305.14,269.72 306.75,270.05 308.36,270.39 309.97,270.72 311.58,271.05 313.18,271.37 314.79,271.68 316.40,272.00 318.01,272.30 319.62,272.61 321.23,272.91 322.84,273.20 324.44,273.50 326.05,273.79 327.66,274.07 329.27,274.35 330.88,274.63 332.49,274.90 334.10,275.17 335.70,275.44 337.31,275.71 338.92,275.97 340.53,276.22 342.14,276.48 343.75,276.73 345.36,276.98 346.96,277.22 348.57,277.47 350.18,277.71 351.79,277.94 353.40,278.18 355.01,278.41 356.62,278.64 358.22,278.86 359.83,279.09 361.44,279.31 363.05,279.52 364.66,279.74 366.27,279.95 367.88,280.17 369.49,280.37 371.09,280.58 372.70,280.78 374.31,280.99 375.92,281.19 377.53,281.38 379.14,281.58 380.75,281.77 382.35,281.96 383.96,282.15 385.57,282.34 387.18,282.53 388.79,282.71 390.40,282.89 392.01,283.07 393.61,283.25 395.22,283.43 396.83,283.60 398.44,283.77 400.05,283.94 401.66,284.11 403.27,284.28 404.87,284.45 406.48,284.61 408.09,284.77 409.70,284.94 411.31,285.10 412.92,285.25 414.53,285.41 416.13,285.56 417.74,285.72 419.35,285.87 420.96,286.02 422.57,286.17 424.18,286.32 425.79,286.46 427.39,286.61 429.00,286.75 430.61,286.90 432.22,287.04 433.83,287.18 435.44,287.32 437.05,287.45 438.65,287.59 440.26,287.73 441.87,287.86 443.48,287.99 445.09,288.12 446.70,288.25 448.31,288.38 449.91,288.51 451.52,288.64 453.13,288.76 454.74,288.89 456.35,289.01 457.96,289.13 459.57,289.26 461.17,289.38 462.78,289.50 464.39,289.62 466.00,289.73" fill="none" stroke="#1F2733" stroke-width="2.6" stroke-linecap="round" stroke-linejoin="round" opacity="1.0"/><circle cx="155.60" cy="176.67" r="5.4" fill="#C0392B" stroke="#FFFFFF" stroke-width="1.8"/><circle cx="312.58" cy="271.25" r="5.4" fill="#B45309" stroke="#FFFFFF" stroke-width="1.8"/><line x1="155.60" y1="176.67" x2="304.01" y2="266.09" stroke="#B45309" stroke-width="2.6" stroke-linecap="round"/><polygon points="312.58,271.25 301.64,270.03 306.39,262.15" fill="#B45309"/><text x="163.60" y="164.67" font-family="'Noto Sans CJK TC','Noto Sans TC','Microsoft JhengHei','PingFang TC','Heiti TC',sans-serif" font-size="12.5" fill="#C0392B" text-anchor="start" dominant-baseline="middle" font-weight="700">0.600 g</text><text x="322.58" y="261.25" font-family="'Noto Sans CJK TC','Noto Sans TC','Microsoft JhengHei','PingFang TC','Heiti TC',sans-serif" font-size="12.5" fill="#B45309" text-anchor="start" dominant-baseline="middle" font-weight="700">0.198 g</text><text x="255.00" y="396.00" font-family="'Noto Sans CJK TC','Noto Sans TC','Microsoft JhengHei','PingFang TC','Heiti TC',sans-serif" font-size="13.5" fill="#2E7D6F" text-anchor="middle" dominant-baseline="middle" font-weight="700">週期 3.0 倍　⇒　力降為 0.33 倍</text></g><g transform="translate(510,76)" clip-path="url(#sdclip1)"><rect width="510" height="430" fill="#FFFFFF"/><rect x="6" y="6" width="498" height="418" rx="14" fill="#F5F7FA" stroke="#E1E6ED" stroke-width="1.2"/><text x="255.00" y="32.00" font-family="'Noto Sans CJK TC','Noto Sans TC','Microsoft JhengHei','PingFang TC','Heiti TC',sans-serif" font-size="15.5" fill="#1F2733" text-anchor="middle" dominant-baseline="middle" font-weight="700">位移：週期愈長愈大（這就是代價）</text><text x="255.00" y="55.00" font-family="'Noto Sans CJK TC','Noto Sans TC','Microsoft JhengHei','PingFang TC','Heiti TC',sans-serif" font-size="12.5" fill="#6B7684" text-anchor="middle" dominant-baseline="middle" font-weight="400">等速度段 D 與 T 成正比</text><rect x="78" y="106" width="388" height="212" rx="0" fill="#FFFFFF" stroke="#E1E6ED" stroke-width="1.2"/><line x1="78.00" y1="318.00" x2="78.00" y2="106.00" stroke="#E1E6ED" stroke-width="1" stroke-linecap="round" stroke-dasharray="3 4" opacity="1.0"/><line x1="78.00" y1="318.00" x2="78.00" y2="323.00" stroke="#6B7684" stroke-width="1.2" stroke-linecap="round" opacity="1.0"/><text x="78.00" y="336.00" font-family="'Noto Sans CJK TC','Noto Sans TC','Microsoft JhengHei','PingFang TC','Heiti TC',sans-serif" font-size="12.5" fill="#6B7684" text-anchor="middle" dominant-baseline="middle" font-weight="400">0</text><line x1="175.00" y1="318.00" x2="175.00" y2="106.00" stroke="#E1E6ED" stroke-width="1" stroke-linecap="round" stroke-dasharray="3 4" opacity="1.0"/><line x1="175.00" y1="318.00" x2="175.00" y2="323.00" stroke="#6B7684" stroke-width="1.2" stroke-linecap="round" opacity="1.0"/><text x="175.00" y="336.00" font-family="'Noto Sans CJK TC','Noto Sans TC','Microsoft JhengHei','PingFang TC','Heiti TC',sans-serif" font-size="12.5" fill="#6B7684" text-anchor="middle" dominant-baseline="middle" font-weight="400">1</text><line x1="272.00" y1="318.00" x2="272.00" y2="106.00" stroke="#E1E6ED" stroke-width="1" stroke-linecap="round" stroke-dasharray="3 4" opacity="1.0"/><line x1="272.00" y1="318.00" x2="272.00" y2="323.00" stroke="#6B7684" stroke-width="1.2" stroke-linecap="round" opacity="1.0"/><text x="272.00" y="336.00" font-family="'Noto Sans CJK TC','Noto Sans TC','Microsoft JhengHei','PingFang TC','Heiti TC',sans-serif" font-size="12.5" fill="#6B7684" text-anchor="middle" dominant-baseline="middle" font-weight="400">2</text><line x1="369.00" y1="318.00" x2="369.00" y2="106.00" stroke="#E1E6ED" stroke-width="1" stroke-linecap="round" stroke-dasharray="3 4" opacity="1.0"/><line x1="369.00" y1="318.00" x2="369.00" y2="323.00" stroke="#6B7684" stroke-width="1.2" stroke-linecap="round" opacity="1.0"/><text x="369.00" y="336.00" font-family="'Noto Sans CJK TC','Noto Sans TC','Microsoft JhengHei','PingFang TC','Heiti TC',sans-serif" font-size="12.5" fill="#6B7684" text-anchor="middle" dominant-baseline="middle" font-weight="400">3</text><line x1="466.00" y1="318.00" x2="466.00" y2="106.00" stroke="#E1E6ED" stroke-width="1" stroke-linecap="round" stroke-dasharray="3 4" opacity="1.0"/><line x1="466.00" y1="318.00" x2="466.00" y2="323.00" stroke="#6B7684" stroke-width="1.2" stroke-linecap="round" opacity="1.0"/><text x="466.00" y="336.00" font-family="'Noto Sans CJK TC','Noto Sans TC','Microsoft JhengHei','PingFang TC','Heiti TC',sans-serif" font-size="12.5" fill="#6B7684" text-anchor="middle" dominant-baseline="middle" font-weight="400">4</text><line x1="78.00" y1="318.00" x2="466.00" y2="318.00" stroke="#E1E6ED" stroke-width="1" stroke-linecap="round" stroke-dasharray="3 4" opacity="1.0"/><line x1="78.00" y1="318.00" x2="73.00" y2="318.00" stroke="#6B7684" stroke-width="1.2" stroke-linecap="round" opacity="1.0"/><text x="68.00" y="318.00" font-family="'Noto Sans CJK TC','Noto Sans TC','Microsoft JhengHei','PingFang TC','Heiti TC',sans-serif" font-size="12.5" fill="#6B7684" text-anchor="end" dominant-baseline="middle" font-weight="400">0</text><line x1="78.00" y1="265.00" x2="466.00" y2="265.00" stroke="#E1E6ED" stroke-width="1" stroke-linecap="round" stroke-dasharray="3 4" opacity="1.0"/><line x1="78.00" y1="265.00" x2="73.00" y2="265.00" stroke="#6B7684" stroke-width="1.2" stroke-linecap="round" opacity="1.0"/><text x="68.00" y="265.00" font-family="'Noto Sans CJK TC','Noto Sans TC','Microsoft JhengHei','PingFang TC','Heiti TC',sans-serif" font-size="12.5" fill="#6B7684" text-anchor="end" dominant-baseline="middle" font-weight="400">10</text><line x1="78.00" y1="212.00" x2="466.00" y2="212.00" stroke="#E1E6ED" stroke-width="1" stroke-linecap="round" stroke-dasharray="3 4" opacity="1.0"/><line x1="78.00" y1="212.00" x2="73.00" y2="212.00" stroke="#6B7684" stroke-width="1.2" stroke-linecap="round" opacity="1.0"/><text x="68.00" y="212.00" font-family="'Noto Sans CJK TC','Noto Sans TC','Microsoft JhengHei','PingFang TC','Heiti TC',sans-serif" font-size="12.5" fill="#6B7684" text-anchor="end" dominant-baseline="middle" font-weight="400">20</text><line x1="78.00" y1="159.00" x2="466.00" y2="159.00" stroke="#E1E6ED" stroke-width="1" stroke-linecap="round" stroke-dasharray="3 4" opacity="1.0"/><line x1="78.00" y1="159.00" x2="73.00" y2="159.00" stroke="#6B7684" stroke-width="1.2" stroke-linecap="round" opacity="1.0"/><text x="68.00" y="159.00" font-family="'Noto Sans CJK TC','Noto Sans TC','Microsoft JhengHei','PingFang TC','Heiti TC',sans-serif" font-size="12.5" fill="#6B7684" text-anchor="end" dominant-baseline="middle" font-weight="400">30</text><line x1="78.00" y1="106.00" x2="466.00" y2="106.00" stroke="#E1E6ED" stroke-width="1" stroke-linecap="round" stroke-dasharray="3 4" opacity="1.0"/><line x1="78.00" y1="106.00" x2="73.00" y2="106.00" stroke="#6B7684" stroke-width="1.2" stroke-linecap="round" opacity="1.0"/><text x="68.00" y="106.00" font-family="'Noto Sans CJK TC','Noto Sans TC','Microsoft JhengHei','PingFang TC','Heiti TC',sans-serif" font-size="12.5" fill="#6B7684" text-anchor="end" dominant-baseline="middle" font-weight="400">40</text><text x="272.00" y="362.00" font-family="'Noto Sans CJK TC','Noto Sans TC','Microsoft JhengHei','PingFang TC','Heiti TC',sans-serif" font-size="13.5" fill="#1F2733" text-anchor="middle" dominant-baseline="middle" font-weight="400">T (s)</text><text x="74.00" y="91.00" font-family="'Noto Sans CJK TC','Noto Sans TC','Microsoft JhengHei','PingFang TC','Heiti TC',sans-serif" font-size="13.5" fill="#1F2733" text-anchor="start" dominant-baseline="middle" font-weight="400">譜位移 D (cm)</text><polyline points="79.94,317.96 81.55,317.86 83.16,317.70 84.77,317.49 86.37,317.21 87.98,316.88 89.59,316.50 91.20,316.05 92.81,315.54 94.42,314.98 96.03,314.36 97.63,313.68 99.24,312.95 100.85,312.15 102.46,311.30 104.07,310.39 105.68,309.42 107.29,308.40 108.89,307.31 110.50,306.17 112.11,304.97 113.72,303.71 115.33,302.40 116.94,301.02 118.55,299.59 120.15,298.10 121.76,296.55 123.37,294.95 124.98,293.28 126.59,291.56 128.20,289.78 129.81,287.95 131.41,286.05 133.02,284.10 134.63,282.09 136.24,280.04 137.85,279.00 139.46,277.95 141.07,276.90 142.67,275.85 144.28,274.80 145.89,273.75 147.50,272.71 149.11,271.66 150.72,270.61 152.33,269.56 153.93,268.51 155.54,267.46 157.15,266.42 158.76,265.37 160.37,264.32 161.98,263.27 163.59,262.22 165.19,261.17 166.80,260.13 168.41,259.08 170.02,258.03 171.63,256.98 173.24,255.93 174.85,254.88 176.45,253.84 178.06,252.79 179.67,251.74 181.28,250.69 182.89,249.64 184.50,248.59 186.11,247.55 187.72,246.50 189.32,245.45 190.93,244.40 192.54,243.35 194.15,242.30 195.76,241.26 197.37,240.21 198.98,239.16 200.58,238.11 202.19,237.06 203.80,236.01 205.41,234.97 207.02,233.92 208.63,232.87 210.24,231.82 211.84,230.77 213.45,229.72 215.06,228.68 216.67,227.63 218.28,226.58 219.89,225.53 221.50,224.48 223.10,223.43 224.71,222.39 226.32,221.34 227.93,220.29 229.54,219.24 231.15,218.19 232.76,217.14 234.36,216.10 235.97,215.05 237.58,214.00 239.19,212.95 240.80,211.90 242.41,210.85 244.02,209.81 245.62,208.76 247.23,207.71 248.84,206.66 250.45,205.61 252.06,204.56 253.67,203.52 255.28,202.47 256.88,201.42 258.49,200.37 260.10,199.32 261.71,198.27 263.32,197.23 264.93,196.18 266.54,195.13 268.14,194.08 269.75,193.03 271.36,191.98 272.97,190.94 274.58,189.89 276.19,188.84 277.80,187.79 279.40,186.74 281.01,185.69 282.62,184.65 284.23,183.60 285.84,182.55 287.45,181.50 289.06,180.45 290.66,179.40 292.27,178.36 293.88,177.31 295.49,176.26 297.10,175.21 298.71,174.16 300.32,173.11 301.92,172.07 303.53,171.02 305.14,169.97 306.75,168.92 308.36,167.87 309.97,166.82 311.58,165.78 313.18,164.73 314.79,163.68 316.40,162.63 318.01,161.58 319.62,160.53 321.23,159.49 322.84,158.44 324.44,157.39 326.05,156.34 327.66,155.29 329.27,154.24 330.88,153.20 332.49,152.15 334.10,151.10 335.70,150.05 337.31,149.00 338.92,147.95 340.53,146.91 342.14,145.86 343.75,144.81 345.36,143.76 346.96,142.71 348.57,141.66 350.18,140.62 351.79,139.57 353.40,138.52 355.01,137.47 356.62,136.42 358.22,135.37 359.83,134.33 361.44,133.28 363.05,132.23 364.66,131.18 366.27,130.13 367.88,129.08 369.49,128.04 371.09,126.99 372.70,125.94 374.31,124.89 375.92,123.84 377.53,122.79 379.14,121.75 380.75,120.70 382.35,119.65 383.96,118.60 385.57,117.55 387.18,116.50 388.79,115.46 390.40,114.41 392.01,113.36 393.61,112.31 395.22,111.26 396.83,110.21 398.44,109.17 400.05,108.12 401.66,107.07 403.27,106.02 404.87,104.97 406.48,103.92 408.09,102.88 409.70,101.83 411.31,100.78 412.92,99.73 414.53,98.68 416.13,97.63 417.74,96.59 419.35,95.54 420.96,94.49 422.57,93.44 424.18,92.39 425.79,91.34 427.39,90.30 429.00,89.25 430.61,88.20 432.22,87.15 433.83,86.10 435.44,85.05 437.05,84.01 438.65,82.96 440.26,81.91 441.87,80.86 443.48,79.81 445.09,78.76 446.70,77.72 448.31,76.67 449.91,75.62 451.52,74.57 453.13,73.52 454.74,72.47 456.35,71.43 457.96,70.38 459.57,69.33 461.17,68.28 462.78,67.23 464.39,66.18 466.00,65.14" fill="none" stroke="#1F2733" stroke-width="2.6" stroke-linecap="round" stroke-linejoin="round" opacity="1.0"/><polyline points="79.94,317.97 81.55,317.91 83.16,317.81 84.77,317.67 86.37,317.50 87.98,317.29 89.59,317.04 91.20,316.75 92.81,316.43 94.42,316.07 96.03,315.68 97.63,315.24 99.24,314.77 100.85,314.27 102.46,313.72 104.07,313.14 105.68,312.52 107.29,311.87 108.89,311.17 110.50,310.45 112.11,309.68 113.72,308.88 115.33,308.04 116.94,307.16 118.55,306.24 120.15,305.29 121.76,304.30 123.37,303.28 124.98,302.22 126.59,301.12 128.20,299.98 129.81,298.81 131.41,297.60 133.02,296.35 134.63,295.07 136.24,293.76 137.85,293.09 139.46,292.42 141.07,291.75 142.67,291.08 144.28,290.41 145.89,289.74 147.50,289.07 149.11,288.41 150.72,287.74 152.33,287.07 153.93,286.40 155.54,285.73 157.15,285.06 158.76,284.39 160.37,283.72 161.98,283.05 163.59,282.38 165.19,281.71 166.80,281.04 168.41,280.37 170.02,279.70 171.63,279.03 173.24,278.36 174.85,277.69 176.45,277.02 178.06,276.35 179.67,275.69 181.28,275.02 182.89,274.35 184.50,273.68 186.11,273.01 187.72,272.34 189.32,271.67 190.93,271.00 192.54,270.33 194.15,269.66 195.76,268.99 197.37,268.32 198.98,267.65 200.58,266.98 202.19,266.31 203.80,265.64 205.41,264.97 207.02,264.30 208.63,263.63 210.24,262.97 211.84,262.30 213.45,261.63 215.06,260.96 216.67,260.29 218.28,259.62 219.89,258.95 221.50,258.28 223.10,257.61 224.71,256.94 226.32,256.27 227.93,255.60 229.54,254.93 231.15,254.26 232.76,253.59 234.36,252.92 235.97,252.25 237.58,251.58 239.19,250.91 240.80,250.25 242.41,249.58 244.02,248.91 245.62,248.24 247.23,247.57 248.84,246.90 250.45,246.23 252.06,245.56 253.67,244.89 255.28,244.22 256.88,243.55 258.49,242.88 260.10,242.21 261.71,241.54 263.32,240.87 264.93,240.20 266.54,239.53 268.14,238.86 269.75,238.19 271.36,237.53 272.97,236.86 274.58,236.19 276.19,235.52 277.80,234.85 279.40,234.18 281.01,233.51 282.62,232.84 284.23,232.17 285.84,231.50 287.45,230.83 289.06,230.16 290.66,229.49 292.27,228.82 293.88,228.15 295.49,227.48 297.10,226.81 298.71,226.14 300.32,225.47 301.92,224.80 303.53,224.14 305.14,223.47 306.75,222.80 308.36,222.13 309.97,221.46 311.58,220.79 313.18,220.12 314.79,219.45 316.40,218.78 318.01,218.11 319.62,217.44 321.23,216.77 322.84,216.10 324.44,215.43 326.05,214.76 327.66,214.09 329.27,213.42 330.88,212.75 332.49,212.08 334.10,211.42 335.70,210.75 337.31,210.08 338.92,209.41 340.53,208.74 342.14,208.07 343.75,207.40 345.36,206.73 346.96,206.06 348.57,205.39 350.18,204.72 351.79,204.05 353.40,203.38 355.01,202.71 356.62,202.04 358.22,201.37 359.83,200.70 361.44,200.03 363.05,199.36 364.66,198.70 366.27,198.03 367.88,197.36 369.49,196.69 371.09,196.02 372.70,195.35 374.31,194.68 375.92,194.01 377.53,193.34 379.14,192.67 380.75,192.00 382.35,191.33 383.96,190.66 385.57,189.99 387.18,189.32 388.79,188.65 390.40,187.98 392.01,187.31 393.61,186.64 395.22,185.98 396.83,185.31 398.44,184.64 400.05,183.97 401.66,183.30 403.27,182.63 404.87,181.96 406.48,181.29 408.09,180.62 409.70,179.95 411.31,179.28 412.92,178.61 414.53,177.94 416.13,177.27 417.74,176.60 419.35,175.93 420.96,175.26 422.57,174.59 424.18,173.92 425.79,173.26 427.39,172.59 429.00,171.92 430.61,171.25 432.22,170.58 433.83,169.91 435.44,169.24 437.05,168.57 438.65,167.90 440.26,167.23 441.87,166.56 443.48,165.89 445.09,165.22 446.70,164.55 448.31,163.88 449.91,163.21 451.52,162.54 453.13,161.87 454.74,161.20 456.35,160.54 457.96,159.87 459.57,159.20 461.17,158.53 462.78,157.86 464.39,157.19 466.00,156.52" fill="none" stroke="#2E7D6F" stroke-width="2.4" stroke-linecap="round" stroke-linejoin="round" stroke-dasharray="7 5" opacity="1.0"/><circle cx="155.60" cy="267.43" r="5.4" fill="#C0392B" stroke="#FFFFFF" stroke-width="1.8"/><circle cx="312.58" cy="165.12" r="5.4" fill="#B45309" stroke="#FFFFFF" stroke-width="1.8"/><circle cx="312.58" cy="220.37" r="5.6" fill="#2E7D6F" stroke="#FFFFFF" stroke-width="1.8"/><line x1="155.60" y1="267.43" x2="304.20" y2="170.58" stroke="#B45309" stroke-width="2.6" stroke-linecap="round"/><polygon points="312.58,165.12 306.71,174.44 301.69,166.73" fill="#B45309"/><line x1="312.58" y1="165.12" x2="312.58" y2="210.37" stroke="#2E7D6F" stroke-width="2.8" stroke-linecap="round"/><polygon points="312.58,220.37 307.98,210.37 317.18,210.37" fill="#2E7D6F"/><text x="163.60" y="279.43" font-family="'Noto Sans CJK TC','Noto Sans TC','Microsoft JhengHei','PingFang TC','Heiti TC',sans-serif" font-size="12.5" fill="#C0392B" text-anchor="start" dominant-baseline="middle" font-weight="700">9.5 cm</text><text x="300.58" y="153.12" font-family="'Noto Sans CJK TC','Noto Sans TC','Microsoft JhengHei','PingFang TC','Heiti TC',sans-serif" font-size="12.5" fill="#B45309" text-anchor="end" dominant-baseline="middle" font-weight="700">28.8 cm（若只有 5%）</text><text x="324.58" y="224.37" font-family="'Noto Sans CJK TC','Noto Sans TC','Microsoft JhengHei','PingFang TC','Heiti TC',sans-serif" font-size="13" fill="#2E7D6F" text-anchor="start" dominant-baseline="middle" font-weight="700">18.4 cm</text><text x="255.00" y="396.00" font-family="'Noto Sans CJK TC','Noto Sans TC','Microsoft JhengHei','PingFang TC','Heiti TC',sans-serif" font-size="13.5" fill="#2E7D6F" text-anchor="middle" dominant-baseline="middle" font-weight="700">阻尼 ξ = 23.3% 把位移收回 36%</text></g><text x="510.0" y="530" font-family="'Noto Sans CJK TC','Noto Sans TC','Microsoft JhengHei','PingFang TC','Heiti TC',sans-serif" font-size="13.5" fill="#6B7684" text-anchor="middle">攔錯：只講「隔震降低地震力」而不檢核隔震層位移。位移不夠就會撞擊隔震溝、拉斷管線。</text></svg>