<svg xmlns="http://www.w3.org/2000/svg" width="720" height="480" viewBox="0 0 720 480"><rect width="720" height="480" fill="#FFFFFF"/><line x1="57.50" y1="380.00" x2="583.24" y2="380.00" stroke="#6B7684" stroke-width="1.6" stroke-linecap="round" stroke-dasharray="7 5" opacity="1.0"/><polyline points="320.00,380.00 320.00,130.00" fill="none" stroke="#3F4A5A" stroke-width="6.5" stroke-linecap="round" stroke-linejoin="round" opacity="1.0"/><polyline points="320.00,130.00 508.24,130.00" fill="none" stroke="#3F4A5A" stroke-width="6.5" stroke-linecap="round" stroke-linejoin="round" opacity="1.0"/><line x1="298.00" y1="380.00" x2="342.00" y2="380.00" stroke="#3F4A5A" stroke-width="3.2" stroke-linecap="round"/><line x1="299.53" y1="380.00" x2="292.53" y2="388.00" stroke="#3F4A5A" stroke-width="1.8" stroke-linecap="round"/><line x1="309.77" y1="380.00" x2="302.77" y2="388.00" stroke="#3F4A5A" stroke-width="1.8" stroke-linecap="round"/><line x1="320.00" y1="380.00" x2="313.00" y2="388.00" stroke="#3F4A5A" stroke-width="1.8" stroke-linecap="round"/><line x1="330.23" y1="380.00" x2="323.23" y2="388.00" stroke="#3F4A5A" stroke-width="1.8" stroke-linecap="round"/><line x1="340.47" y1="380.00" x2="333.47" y2="388.00" stroke="#3F4A5A" stroke-width="1.8" stroke-linecap="round"/><rect x="312" y="247.29411764705884" width="16" height="16" rx="2" fill="#FFFFFF" stroke="#3F4A5A" stroke-width="2.4"/><text x="286.00" y="255.29" font-family="'Latin Modern Math','Cambria Math','Times New Roman','Nimbus Roman',serif" font-size="16" fill="#3F4A5A" text-anchor="start" dominant-baseline="middle" font-weight="700" font-style="italic">m<tspan dy="4.80" font-size="10.88">1</tspan></text><rect x="312" y="122.0" width="16" height="16" rx="2" fill="#FFFFFF" stroke="#3F4A5A" stroke-width="2.4"/><text x="286.00" y="128.00" font-family="'Latin Modern Math','Cambria Math','Times New Roman','Nimbus Roman',serif" font-size="16" fill="#3F4A5A" text-anchor="start" dominant-baseline="middle" font-weight="700" font-style="italic">m<tspan dy="4.80" font-size="10.88">2</tspan></text><rect x="500.2352941176471" y="122.0" width="16" height="16" rx="2" fill="#FFFFFF" stroke="#3F4A5A" stroke-width="2.4"/><text x="501.25" y="104.00" font-family="'Latin Modern Math','Cambria Math','Times New Roman','Nimbus Roman',serif" font-size="16" fill="#3F4A5A" text-anchor="start" dominant-baseline="middle" font-weight="700" font-style="italic">m<tspan dy="4.80" font-size="10.88">3</tspan></text><line x1="320.00" y1="255.29" x2="389.00" y2="255.29" stroke="#1D4ED8" stroke-width="3.2" stroke-linecap="round"/><polygon points="400.00,255.29 389.00,260.35 389.00,250.23" fill="#1D4ED8"/><text x="409.00" y="255.29" font-family="'Latin Modern Math','Cambria Math','Times New Roman','Nimbus Roman',serif" font-size="17" fill="#1D4ED8" text-anchor="start" dominant-baseline="middle" font-weight="700" font-style="italic">u<tspan dy="5.10" font-size="11.56">1</tspan></text><line x1="508.24" y1="130.00" x2="577.24" y2="130.00" stroke="#1D4ED8" stroke-width="3.2" stroke-linecap="round"/><polygon points="588.24,130.00 577.24,135.06 577.24,124.94" fill="#1D4ED8"/><text x="597.24" y="130.00" font-family="'Latin Modern Math','Cambria Math','Times New Roman','Nimbus Roman',serif" font-size="17" fill="#1D4ED8" text-anchor="start" dominant-baseline="middle" font-weight="700" font-style="italic">u<tspan dy="5.10" font-size="11.56">2</tspan></text><line x1="508.24" y1="130.00" x2="508.24" y2="199.00" stroke="#1D4ED8" stroke-width="3.2" stroke-linecap="round"/><polygon points="508.24,210.00 503.18,199.00 513.30,199.00" fill="#1D4ED8"/><text x="500.81" y="232.00" font-family="'Latin Modern Math','Cambria Math','Times New Roman','Nimbus Roman',serif" font-size="17" fill="#1D4ED8" text-anchor="start" dominant-baseline="middle" font-weight="700" font-style="italic">u<tspan dy="5.10" font-size="11.56">3</tspan></text><line x1="320.00" y1="380.00" x2="202.00" y2="380.00" stroke="#8A94A6" stroke-width="1" stroke-dasharray="3 3"/><line x1="320.00" y1="255.29" x2="202.00" y2="255.29" stroke="#8A94A6" stroke-width="1" stroke-dasharray="3 3"/><line x1="220.00" y1="380.00" x2="220.00" y2="255.29" stroke="#8A94A6" stroke-width="1.2"/><polygon points="220.00,380.00 223.20,372.00 216.80,372.00" fill="#8A94A6"/><polygon points="220.00,255.29 216.80,263.29 223.20,263.29" fill="#8A94A6"/><text x="197.88" y="317.65" font-family="'Latin Modern Math','Cambria Math','Times New Roman','Nimbus Roman',serif" font-size="14" fill="#8A94A6" text-anchor="start" dominant-baseline="middle" font-weight="400" font-style="italic">h<tspan dy="4.20" font-size="9.52">1</tspan></text><line x1="320.00" y1="380.00" x2="89.90" y2="380.00" stroke="#8A94A6" stroke-width="1" stroke-dasharray="3 3"/><line x1="320.00" y1="130.00" x2="89.90" y2="130.00" stroke="#8A94A6" stroke-width="1" stroke-dasharray="3 3"/><line x1="125.00" y1="380.00" x2="125.00" y2="130.00" stroke="#8A94A6" stroke-width="1.2"/><polygon points="125.00,380.00 128.20,372.00 121.80,372.00" fill="#8A94A6"/><polygon points="125.00,130.00 121.80,138.00 128.20,138.00" fill="#8A94A6"/><text x="102.88" y="255.00" font-family="'Latin Modern Math','Cambria Math','Times New Roman','Nimbus Roman',serif" font-size="14" fill="#8A94A6" text-anchor="start" dominant-baseline="middle" font-weight="400" font-style="italic">h<tspan dy="4.20" font-size="9.52">2</tspan></text><line x1="320.00" y1="130.00" x2="320.00" y2="59.20" stroke="#8A94A6" stroke-width="1" stroke-dasharray="3 3"/><line x1="508.24" y1="130.00" x2="508.24" y2="59.20" stroke="#8A94A6" stroke-width="1" stroke-dasharray="3 3"/><line x1="320.00" y1="70.00" x2="508.24" y2="70.00" stroke="#8A94A6" stroke-width="1.2"/><polygon points="320.00,70.00 328.00,73.20 328.00,66.80" fill="#8A94A6"/><polygon points="508.24,70.00 500.24,66.80 500.24,73.20" fill="#8A94A6"/><text x="408.00" y="55.00" font-family="'Latin Modern Math','Cambria Math','Times New Roman','Nimbus Roman',serif" font-size="14" fill="#8A94A6" text-anchor="start" dominant-baseline="middle" font-weight="400" font-style="italic">x<tspan dy="4.20" font-size="9.52">3</tspan></text><circle cx="320.00" cy="380.00" r="5.2" fill="#B45309" stroke="#FFFFFF" stroke-width="2.0"/><line x1="70.00" y1="380.00" x2="312.50" y2="380.00" stroke="#B45309" stroke-width="1.5" stroke-linecap="round" stroke-dasharray="4 4" opacity="1.0"/><text x="70.00" y="364.00" font-family="'Noto Sans CJK TC','Noto Sans TC','Microsoft JhengHei','PingFang TC','Heiti TC',sans-serif" font-size="13" fill="#B45309" text-anchor="start" dominant-baseline="middle" font-weight="700">兩條尺寸線的共同起點</text><text x="360.00" y="450.00" font-family="'Noto Sans CJK TC','Noto Sans TC','Microsoft JhengHei','PingFang TC','Heiti TC',sans-serif" font-size="13.5" fill="#6B7684" text-anchor="middle" dominant-baseline="middle" font-weight="400">h1、h2 皆自基礎量起（h2 並非 m1→m2 的段長）；各桿件軸向剛性</text></svg>