<svg xmlns="http://www.w3.org/2000/svg" width="1040" height="562" viewBox="0 0 1040 562" xmlns:c2pa="http://c2pa.org/manifest"><metadata><c2pa:manifest>AAAWgmp1bWIAAAAeanVtZGMycGEAEQAQgAAAqgA4m3EDYzJwYQAAABZcanVtYgAAAEdqdW1kYzJtYQARABCAAACqADibcQN1cm46YzJwYTo2NDM5NTI4NC03YzQ3LTRlZTUtOWJlZC04M2E3ZWMyMzEwMWYAAAADl2p1bWIAAAApanVtZGMyYXMAEQAQgAAAqgA4m3EDYzJwYS5hc3NlcnRpb25zAAAAALxqdW1iAAAARGp1bWRjYm9yABEAEIAAAKoAOJtxE2MycGEuaW5ncmVkaWVudC52MwAAAAAYYzJzaAhs5gxRcKFcsbVfsvdF9YkAAABwY2JvcqNpZGM6Zm9ybWF0bWltYWdlL3N2Zyt4bWxqaW5zdGFuY2VJRHgseG1wOmlpZDo4MGE2MjgzMy1iNmE4LTQ5OWItYjRlNC04ODhmOWM3YjAxOTZscmVsYXRpb25zaGlwaHBhcmVudE9mAAAB4mp1bWIAAABBanVtZGNib3IAEQAQgAAAqgA4m3ETYzJwYS5hY3Rpb25zLnYyAAAAABhjMnNoPWCJad/XD0FTYO4RAq2ZywAAAZljYm9yomdhY3Rpb25zgqJmYWN0aW9ua2MycGEub3BlbmVkanBhcmFtZXRlcnOha2luZ3JlZGllbnRzgaJjdXJseC1zZWxmI2p1bWJmPWMycGEuYXNzZXJ0aW9ucy9jMnBhLmluZ3JlZGllbnQudjNkaGFzaFggy/rRJvPTa08a8IH3EVWXyBS3yAYJr6m/efBPAEhDhH+kZmFjdGlvbngdY29tLmFudGhyb3BpYy5jbGF1ZGUucHJvdmlkZWRqcGFyYW1ldGVyc6F4H2NvbS5hbnRocm9waWMub3JpZ2luLWNvbmZpZGVuY2VndW5rbm93bmtkZXNjcmlwdGlvbnhmQ2xhdWRlIHByb3ZpZGVkIHRoaXMgZmlsZSBhdCB0aGUgcmVxdWVzdCBvZiBhIHVzZXIgYW5kIG1heSBoYXZlIGNyZWF0ZWQgb3IgbW9kaWZpZWQgdGhlIGZpbGUgY29udGVudHMubXNvZnR3YXJlQWdlbnShZG5hbWVmQ2xhdWRlcmFsbEFjdGlvbnNJbmNsdWRlZPUAAADIanVtYgAAAEBqdW1kY2JvcgARABCAAACqADibcRNjMnBhLmhhc2guZGF0YQAAAAAYYzJzaBlM5uR+B5s1FSlUYkGBXGsAAACAY2JvcqVjYWxnZnNoYTI1NmNwYWRNAAAAAAAAAAAAAAAAAGRoYXNoWCDoYxHG4O+Zw44eZMaLWOO1byG/CgbgCkOBryvn7otwC2RuYW1lbmp1bWJmIG1hbmlmZXN0amV4Y2x1c2lvbnOBomVzdGFydBiYZmxlbmd0aBkeBAAAAj5qdW1iAAAAJ2p1bWRjMmNsABEAEIAAAKoAOJtxA2MycGEuY2xhaW0udjIAAAACD2Nib3KlY2FsZ2ZzaGEyNTZpc2lnbmF0dXJleE1zZWxmI2p1bWJmPS9jMnBhL3VybjpjMnBhOjY0Mzk1Mjg0LTdjNDctNGVlNS05YmVkLTgzYTdlYzIzMTAxZi9jMnBhLnNpZ25hdHVyZWppbnN0YW5jZUlEeCx4bXA6aWlkOjk2NTc0ZjZhLTIxMGEtNGMwZi1iY2EyLWIxNzljZTAzOTcwOHJjcmVhdGVkX2Fzc2VydGlvbnODomN1cmx4LXNlbGYjanVtYmY9YzJwYS5hc3NlcnRpb25zL2MycGEuaW5ncmVkaWVudC52M2RoYXNoWCDL+tEm89NrTxrwgfcRVZfIFLfIBgmvqb958E8ASEOEf6JjdXJseCpzZWxmI2p1bWJmPWMycGEuYXNzZXJ0aW9ucy9jMnBhLmFjdGlvbnMudjJkaGFzaFggYpgh5n/tdlrC2LBrp1NFy14aydEdrv4G4hVR2DBpdmOiY3VybHgpc2VsZiNqdW1iZj1jMnBhLmFzc2VydGlvbnMvYzJwYS5oYXNoLmRhdGFkaGFzaFgg+ZUxNMFYKrYURwUMZEuq/SfBkTeHDeOceFodIDyDRBh0Y2xhaW1fZ2VuZXJhdG9yX2luZm+jZG5hbWVvQW50aHJvcGljIEZpbGVzZ3ZlcnNpb25lMS4wLjBrc3BlY1ZlcnNpb25lMi40LjAAABA4anVtYgAAAChqdW1kYzJjcwARABCAAACqADibcQNjMnBhLnNpZ25hdHVyZQAAABAIY2JvctKEWQISogEmGCFZAgowggIGMIIBjaADAgECAhRA5aAK7sI50L64g/oGQgU9Z1UTADAKBggqhkjOPQQDAzBJMRcwFQYDVQQKEw5BbnRocm9waWMsIFBCQzEuMCwGA1UEAxMlQW50aHJvcGljIENvbnRlbnQgQ3JlZGVudGlhbHMgUm9vdCBDQTAeFw0yNjA4MDcxODQzNTZaFw0yODA4MDYxOTQzNTZaMEQxFzAVBgNVBAoTDkFudGhyb3BpYywgUEJDMSkwJwYDVQQDEyBBbnRocm9waWMgQ2xhdWRlIENvbnRlbnQgU2lnbmluZzBZMBMGByqGSM49AgEGCCqGSM49AwEHA0IABJh6CmvLUBgFFNU0vUKlOVtE6djd17L5SuwX0LemFisBM3dkd/3cyjxFA3Qo5S46fX0/ihY0VZ7mfb9KF703t5OjWDBWMA4GA1UdDwEB/wQEAwIHgDAVBgNVHSUEDjAMBgorBgEEAYPoXgIBMAwGA1UdEwEB/wQCMAAwHwYDVR0jBBgwFoAUzlHiBIFOZFsj+OPEz5o+nMHXXMIwCgYIKoZIzj0EAwMDZwAwZAIwMXMdFJ4BetLLVY7ORuE9noqbbAZOZn/aArXyTwFAZfKrPzxF2vPoJNf1+UCdg1XGAjBwX1zd9WGqYkqmL5SFqw1QySjr1zJfpJM9+1rdDwSPLMOPOjKuiXjoU/pUUeG9RwmhY3BhZFkNngAAAAAAAAAAAAAAAAAAAAAAAAAAAAAAAAAAAAAAAAAAAAAAAAAAAAAAAAAAAAAAAAAAAAAAAAAAAAAAAAAAAAAAAAAAAAAAAAAAAAAAAAAAAAAAAAAAAAAAAAAAAAAAAAAAAAAAAAAAAAAAAAAAAAAAAAAAAAAAAAAAAAAAAAAAAAAAAAAAAAAAAAAAAAAAAAAAAAAAAAAAAAAAAAAAAAAAAAAAAAAAAAAAAAAAAAAAAAAAAAAAAAAAAAAAAAAAAAAAAAAAAAAAAAAAAAAAAAAAAAAAAAAAAAAAAAAAAAAAAAAAAAAAAAAAAAAAAAAAAAAAAAAAAAAAAAAAAAAAAAAAAAAAAAAAAAAAAAAAAAAAAAAAAAAAAAAAAAAAAAAAAAAAAAAAAAAAAAAAAAAAAAAAAAAAAAAAAAAAAAAAAAAAAAAAAAAAAAAAAAAAAAAAAAAAAAAAAAAAAAAAAAAAAAAAAAAAAAAAAAAAAAAAAAAAAAAAAAAAAAAAAAAAAAAAAAAAAAAAAAAAAAAAAAAAAAAAAAAAAAAAAAAAAAAAAAAAAAAAAAAAAAAAAAAAAAAAAAAAAAAAAAAAAAAAAAAAAAAAAAAAAAAAAAAAAAAAAAAAAAAAAAAAAAAAAAAAAAAAAAAAAAAAAAAAAAAAAAAAAAAAAAAAAAAAAAAAAAAAAAAAAAAAAAAAAAAAAAAAAAAAAAAAAAAAAAAAAAAAAAAAAAAAAAAAAAAAAAAAAAAAAAAAAAAAAAAAAAAAAAAAAAAAAAAAAAAAAAAAAAAAAAAAAAAAAAAAAAAAAAAAAAAAAAAAAAAAAAAAAAAAAAAAAAAAAAAAAAAAAAAAAAAAAAAAAAAAAAAAAAAAAAAAAAAAAAAAAAAAAAAAAAAAAAAAAAAAAAAAAAAAAAAAAAAAAAAAAAAAAAAAAAAAAAAAAAAAAAAAAAAAAAAAAAAAAAAAAAAAAAAAAAAAAAAAAAAAAAAAAAAAAAAAAAAAAAAAAAAAAAAAAAAAAAAAAAAAAAAAAAAAAAAAAAAAAAAAAAAAAAAAAAAAAAAAAAAAAAAAAAAAAAAAAAAAAAAAAAAAAAAAAAAAAAAAAAAAAAAAAAAAAAAAAAAAAAAAAAAAAAAAAAAAAAAAAAAAAAAAAAAAAAAAAAAAAAAAAAAAAAAAAAAAAAAAAAAAAAAAAAAAAAAAAAAAAAAAAAAAAAAAAAAAAAAAAAAAAAAAAAAAAAAAAAAAAAAAAAAAAAAAAAAAAAAAAAAAAAAAAAAAAAAAAAAAAAAAAAAAAAAAAAAAAAAAAAAAAAAAAAAAAAAAAAAAAAAAAAAAAAAAAAAAAAAAAAAAAAAAAAAAAAAAAAAAAAAAAAAAAAAAAAAAAAAAAAAAAAAAAAAAAAAAAAAAAAAAAAAAAAAAAAAAAAAAAAAAAAAAAAAAAAAAAAAAAAAAAAAAAAAAAAAAAAAAAAAAAAAAAAAAAAAAAAAAAAAAAAAAAAAAAAAAAAAAAAAAAAAAAAAAAAAAAAAAAAAAAAAAAAAAAAAAAAAAAAAAAAAAAAAAAAAAAAAAAAAAAAAAAAAAAAAAAAAAAAAAAAAAAAAAAAAAAAAAAAAAAAAAAAAAAAAAAAAAAAAAAAAAAAAAAAAAAAAAAAAAAAAAAAAAAAAAAAAAAAAAAAAAAAAAAAAAAAAAAAAAAAAAAAAAAAAAAAAAAAAAAAAAAAAAAAAAAAAAAAAAAAAAAAAAAAAAAAAAAAAAAAAAAAAAAAAAAAAAAAAAAAAAAAAAAAAAAAAAAAAAAAAAAAAAAAAAAAAAAAAAAAAAAAAAAAAAAAAAAAAAAAAAAAAAAAAAAAAAAAAAAAAAAAAAAAAAAAAAAAAAAAAAAAAAAAAAAAAAAAAAAAAAAAAAAAAAAAAAAAAAAAAAAAAAAAAAAAAAAAAAAAAAAAAAAAAAAAAAAAAAAAAAAAAAAAAAAAAAAAAAAAAAAAAAAAAAAAAAAAAAAAAAAAAAAAAAAAAAAAAAAAAAAAAAAAAAAAAAAAAAAAAAAAAAAAAAAAAAAAAAAAAAAAAAAAAAAAAAAAAAAAAAAAAAAAAAAAAAAAAAAAAAAAAAAAAAAAAAAAAAAAAAAAAAAAAAAAAAAAAAAAAAAAAAAAAAAAAAAAAAAAAAAAAAAAAAAAAAAAAAAAAAAAAAAAAAAAAAAAAAAAAAAAAAAAAAAAAAAAAAAAAAAAAAAAAAAAAAAAAAAAAAAAAAAAAAAAAAAAAAAAAAAAAAAAAAAAAAAAAAAAAAAAAAAAAAAAAAAAAAAAAAAAAAAAAAAAAAAAAAAAAAAAAAAAAAAAAAAAAAAAAAAAAAAAAAAAAAAAAAAAAAAAAAAAAAAAAAAAAAAAAAAAAAAAAAAAAAAAAAAAAAAAAAAAAAAAAAAAAAAAAAAAAAAAAAAAAAAAAAAAAAAAAAAAAAAAAAAAAAAAAAAAAAAAAAAAAAAAAAAAAAAAAAAAAAAAAAAAAAAAAAAAAAAAAAAAAAAAAAAAAAAAAAAAAAAAAAAAAAAAAAAAAAAAAAAAAAAAAAAAAAAAAAAAAAAAAAAAAAAAAAAAAAAAAAAAAAAAAAAAAAAAAAAAAAAAAAAAAAAAAAAAAAAAAAAAAAAAAAAAAAAAAAAAAAAAAAAAAAAAAAAAAAAAAAAAAAAAAAAAAAAAAAAAAAAAAAAAAAAAAAAAAAAAAAAAAAAAAAAAAAAAAAAAAAAAAAAAAAAAAAAAAAAAAAAAAAAAAAAAAAAAAAAAAAAAAAAAAAAAAAAAAAAAAAAAAAAAAAAAAAAAAAAAAAAAAAAAAAAAAAAAAAAAAAAAAAAAAAAAAAAAAAAAAAAAAAAAAAAAAAAAAAAAAAAAAAAAAAAAAAAAAAAAAAAAAAAAAAAAAAAAAAAAAAAAAAAAAAAAAAAAAAAAAAAAAAAAAAAAAAAAAAAAAAAAAAAAAAAAAAAAAAAAAAAAAAAAAAAAAAAAAAAAAAAAAAAAAAAAAAAAAAAAAAAAAAAAAAAAAAAAAAAAAAAAAAAAAAAAAAAAAAAAAAAAAAAAAAAAAAAAAAAAAAAAAAAAAAAAAAAAAAAAAAAAAAAAAAAAAAAAAAAAAAAAAAAAAAAAAAAAAAAAAAAAAAAAAAAAAAAAAAAAAAAAAAAAAAAAAAAAAAAAAAAAAAAAAAAAAAAAAAAAAAAAAAAAAAAAAAAAAAAAAAAAAAAAAAAAAAAAAAAAAAAAAAAAAAAAAAAAAAAAAAAAAAAAAAAAAAAAAAAAAAAAAAAAAAAAAAAAAAAAAAAAAAAAAAAAAAAAAAAAAAAAAAAAAAAAAAAAAAAAAAAAAAAAAAAAAAAAAAAAAAAAAAAAAAAAAAAAAAAAAAAAAAAAAAAAAAAAAAAAAAAAAAAAAAAAAAAAAAAAAAAAAAAAAAAAAAAAAAAAAAAAAAAAAAAAAAAAAAAAAAAAAAAAAAAAAAAAAAAAAAAAAAAAAAAAAAAAAAAAAAAAAAAAAAAAAAAAAAAAAAAAAAAAAAAAAAAAAAAAAAAAAAAAAAAAAAAAAAAAAAAAAAAAAAAAAAAAAAAAAAAAAAAAAAAAAAAAAAAAAAAAAAAAAAAAAAAAAAAAAAAAAAAAAAAAAAAAAAAAAAAAAAAAAAAAAAAAAAAAAAAAAAAAAAAAAAAAAAAAAAAAAAAAAAAAAAAAAAAAAAAAAAAAAAAAAAAAAAAAAAAAAAAAAAAAAAAAAAAAAAAAAAAAAAAAAAAAAAAAAAAAAAAAAAAAAAAAAAAAAAAAAAAAAAAAAAAAAAAAAAAAAAAAAAAAAAAAAAAAAAAAAAAAAAAAAAAAAAAAAAAAAAAAAAAAAAAAAAAAAAAAAAAAAAAAAAAAAAAAAAAAAAAAAAAAAAAAAAAAAAAAAAAAAAAAAAAAAAAAAAAAAAAAAAAAAAAAAAAAAAAAAAAAAAAAAAAAAAAAAAAAAAAAAAAAAAAAAAAAAAAAAAAAAAAAAAAAAAAAAAAAAAAAAAAAAAAAAAAAAAAAAAAAAAAAAAAAAAAAAAAAAAAAAAAAAAAAAAAAAAAAAAAAAAAAAAAAAAAAAAAAAAAAAAAAAAAAAAAAAAAAAAAAAAAAAAAAAAAAAAAAAAAAAAAAAAAAAAAAAAAAAAAAAAAAAAAAAAAAAAAAAAAAAAAAAAAAAAAAAAAAAAAAAAAAAAAAAAAAAAAAAAAAAAAAAAAAAAAAAAAAAAAAAAAAAAAAAAAAAAAAAAAAAAAAAAAAAAAAAAAAAAAAAAAAAAAAAAAAAAAAAAAAAAAAAAAAAAAAAAAAAAAAAAAAAAAAAAAAAAAAAAAAAAAAAAAAAAAAAAAAAAAAAAAAAAAAAAAAAAAAAAAAAAAAAAAAAAAAAAAAAAAAAAAAAAAAAAAAAAAAAAAAAAAAAAAAAAAAAAAAAAAAAAAAAAAAAAAAAAAAAAAAAAAAAAAAAAAAAAAAAAAAAAAAAAAAAAAAAAAAAAAAAAAAAAAAAAAAAAAAAAAAAAAAAAAAAAAAAAAAAAAAAAAAAAAAAAAAAAAAAAAAAAAAAAAAAAAAAAAAAAAAAAAAAAAAAAAAAAAAAAAAAAAAAAAAAAAAAAAAAAAAAAAAAAAAAAAAAAAAAAAAAAAAAAAAAAAAAAAAAAAAAAAAAAAAAAAAAAAAAAAAAAAAAAAAAAAAAAAPZYQMgN4M0fPjLVQ7gh9JyT7+PxWlu+NxuTpPkLhCyazqIDOYa2YmZuIzCvkD+BQ/jgoSxz9ZmcMWBvE5t7umZ7R3k=</c2pa:manifest></metadata><defs><clipPath id="sdclip0"><rect x="0" y="0" width="520" height="440"/></clipPath><clipPath id="sdclip1"><rect x="0" y="0" width="520" height="440"/></clipPath></defs><rect width="1040" height="562" fill="#FFFFFF"/><text x="520.0" y="34" font-family="'Noto Sans CJK TC','Noto Sans TC','Microsoft JhengHei','PingFang TC','Heiti TC',sans-serif" font-size="17.5" fill="#1F2733" text-anchor="middle" font-weight="700">圖 3　等值線性靜力分析：用有效阻尼比折減設計譜</text><g transform="translate(0,76)" clip-path="url(#sdclip0)"><rect x="6" y="6" width="508" height="428" rx="14" fill="#F5F7FA" stroke="#E1E6ED" stroke-width="1.2"/><text x="174.80" y="32.00" font-family="'Noto Sans CJK TC','Noto Sans TC','Microsoft JhengHei','PingFang TC','Heiti TC',sans-serif" font-size="15.5" fill="#1F2733" text-anchor="start" dominant-baseline="middle" font-weight="700">(a) 加速度反應譜係數 S<tspan dy="4.65" font-size="10.54">a</tspan></text><text x="196.37" y="55.00" font-family="'Noto Sans CJK TC','Noto Sans TC','Microsoft JhengHei','PingFang TC','Heiti TC',sans-serif" font-size="12.5" fill="#6B7684" text-anchor="start" dominant-baseline="middle" font-weight="400">5% 阻尼 vs β<tspan dy="3.75" font-size="8.5">eff</tspan><tspan dy="-3.75" font-size="12.5"> = 16.9%</tspan></text><line x1="70" y1="370" x2="486" y2="370" stroke="#6B7684" stroke-width="1.6"/><line x1="70" y1="370" x2="70" y2="94" stroke="#6B7684" stroke-width="1.6"/><text x="172.50" y="386.00" font-family="'Noto Sans CJK TC','Noto Sans TC','Microsoft JhengHei','PingFang TC','Heiti TC',sans-serif" font-size="11.5" fill="#6B7684" text-anchor="middle" dominant-baseline="middle" font-weight="400">0.5</text><text x="275.00" y="386.00" font-family="'Noto Sans CJK TC','Noto Sans TC','Microsoft JhengHei','PingFang TC','Heiti TC',sans-serif" font-size="11.5" fill="#6B7684" text-anchor="middle" dominant-baseline="middle" font-weight="400">1.0</text><text x="377.50" y="386.00" font-family="'Noto Sans CJK TC','Noto Sans TC','Microsoft JhengHei','PingFang TC','Heiti TC',sans-serif" font-size="11.5" fill="#6B7684" text-anchor="middle" dominant-baseline="middle" font-weight="400">1.5</text><text x="480.00" y="386.00" font-family="'Noto Sans CJK TC','Noto Sans TC','Microsoft JhengHei','PingFang TC','Heiti TC',sans-serif" font-size="11.5" fill="#6B7684" text-anchor="middle" dominant-baseline="middle" font-weight="400">2.0</text><text x="62.00" y="313.75" font-family="'Noto Sans CJK TC','Noto Sans TC','Microsoft JhengHei','PingFang TC','Heiti TC',sans-serif" font-size="11.5" fill="#6B7684" text-anchor="end" dominant-baseline="middle" font-weight="400">0.05</text><line x1="70" y1="313.8" x2="480" y2="313.8" stroke="#E1E6ED" stroke-width="1"/><text x="62.00" y="257.50" font-family="'Noto Sans CJK TC','Noto Sans TC','Microsoft JhengHei','PingFang TC','Heiti TC',sans-serif" font-size="11.5" fill="#6B7684" text-anchor="end" dominant-baseline="middle" font-weight="400">0.10</text><line x1="70" y1="257.5" x2="480" y2="257.5" stroke="#E1E6ED" stroke-width="1"/><text x="62.00" y="201.25" font-family="'Noto Sans CJK TC','Noto Sans TC','Microsoft JhengHei','PingFang TC','Heiti TC',sans-serif" font-size="11.5" fill="#6B7684" text-anchor="end" dominant-baseline="middle" font-weight="400">0.15</text><line x1="70" y1="201.2" x2="480" y2="201.2" stroke="#E1E6ED" stroke-width="1"/><text x="62.00" y="145.00" font-family="'Noto Sans CJK TC','Noto Sans TC','Microsoft JhengHei','PingFang TC','Heiti TC',sans-serif" font-size="11.5" fill="#6B7684" text-anchor="end" dominant-baseline="middle" font-weight="400">0.20</text><line x1="70" y1="145.0" x2="480" y2="145.0" stroke="#E1E6ED" stroke-width="1"/><text x="476.00" y="404.00" font-family="'Latin Modern Math','Cambria Math','Times New Roman','Nimbus Roman',serif" font-size="13" fill="#6B7684" text-anchor="end" dominant-baseline="middle" font-weight="400" font-style="italic">T (s)</text><path d="M 74.1 145.0 L 75.5 145.0 L 76.8 145.0 L 78.2 145.0 L 79.5 145.0 L 80.9 145.0 L 82.2 145.0 L 83.6 145.0 L 84.9 145.0 L 86.3 145.0 L 87.6 145.0 L 89.0 145.0 L 90.3 145.0 L 91.7 145.0 L 93.0 145.0 L 94.4 145.0 L 95.7 145.0 L 97.1 145.0 L 98.5 145.0 L 99.8 145.0 L 101.2 145.0 L 102.5 145.0 L 103.9 145.0 L 105.2 145.0 L 106.6 145.0 L 107.9 145.0 L 109.3 145.0 L 110.6 145.0 L 112.0 145.0 L 113.3 145.0 L 114.7 145.0 L 116.0 145.0 L 117.4 145.0 L 118.7 145.0 L 120.1 145.0 L 121.5 145.0 L 122.8 145.0 L 124.2 145.0 L 125.5 145.0 L 126.9 145.0 L 128.2 145.0 L 129.6 145.0 L 130.9 145.0 L 132.3 145.0 L 133.6 145.0 L 135.0 145.0 L 136.3 145.0 L 137.7 145.0 L 139.0 145.0 L 140.4 145.0 L 141.8 145.0 L 143.1 145.0 L 144.5 145.0 L 145.8 145.0 L 147.2 145.0 L 148.5 145.0 L 149.9 145.0 L 151.2 145.0 L 152.6 145.0 L 153.9 145.0 L 155.3 145.0 L 156.6 145.0 L 158.0 145.0 L 159.3 145.0 L 160.7 145.0 L 162.0 145.0 L 163.4 145.0 L 164.8 145.0 L 166.1 145.0 L 167.5 145.0 L 168.8 145.0 L 170.2 145.0 L 171.5 145.0 L 172.9 145.0 L 174.2 145.0 L 175.6 145.0 L 176.9 145.0 L 178.3 145.0 L 179.6 145.0 L 181.0 145.0 L 182.3 145.0 L 183.7 145.0 L 185.0 145.0 L 186.4 145.0 L 187.8 145.0 L 189.1 145.0 L 190.5 145.0 L 191.8 145.0 L 193.2 145.3 L 194.5 147.7 L 195.9 150.1 L 197.2 152.5 L 198.6 154.8 L 199.9 157.0 L 201.3 159.2 L 202.6 161.3 L 204.0 163.5 L 205.3 165.5 L 206.7 167.5 L 208.0 169.5 L 209.4 171.5 L 210.8 173.4 L 212.1 175.3 L 213.5 177.1 L 214.8 178.9 L 216.2 180.7 L 217.5 182.4 L 218.9 184.1 L 220.2 185.8 L 221.6 187.4 L 222.9 189.0 L 224.3 190.6 L 225.6 192.2 L 227.0 193.7 L 228.3 195.2 L 229.7 196.7 L 231.0 198.2 L 232.4 199.6 L 233.8 201.0 L 235.1 202.4 L 236.5 203.7 L 237.8 205.1 L 239.2 206.4 L 240.5 207.7 L 241.9 209.0 L 243.2 210.2 L 244.6 211.5 L 245.9 212.7 L 247.3 213.9 L 248.6 215.1 L 250.0 216.2 L 251.3 217.4 L 252.7 218.5 L 254.0 219.6 L 255.4 220.7 L 256.8 221.8 L 258.1 222.9 L 259.5 223.9 L 260.8 225.0 L 262.2 226.0 L 263.5 227.0 L 264.9 228.0 L 266.2 229.0 L 267.6 229.9 L 268.9 230.9 L 270.3 231.8 L 271.6 232.7 L 273.0 233.7 L 274.3 234.6 L 275.7 235.5 L 277.1 236.3 L 278.4 237.2 L 279.8 238.1 L 281.1 238.9 L 282.5 239.7 L 283.8 240.6 L 285.2 241.4 L 286.5 242.2 L 287.9 243.0 L 289.2 243.8 L 290.6 244.5 L 291.9 245.3 L 293.3 246.1 L 294.6 246.8 L 296.0 247.5 L 297.3 248.3 L 298.7 249.0 L 300.1 249.7 L 301.4 250.4 L 302.8 251.1 L 304.1 251.8 L 305.5 252.5 L 306.8 253.1 L 308.2 253.8 L 309.5 254.5 L 310.9 255.1 L 312.2 255.7 L 313.6 256.4 L 314.9 257.0 L 316.3 257.6 L 317.6 258.2 L 319.0 258.9 L 320.3 259.5 L 321.7 260.0 L 323.1 260.6 L 324.4 261.2 L 325.8 261.8 L 327.1 262.4 L 328.5 262.9 L 329.8 263.5 L 331.2 264.0 L 332.5 264.6 L 333.9 265.1 L 335.2 265.7 L 336.6 266.2 L 337.9 266.7 L 339.3 267.2 L 340.6 267.7 L 342.0 268.3 L 343.3 268.8 L 344.7 269.3 L 346.1 269.7 L 347.4 270.2 L 348.8 270.7 L 350.1 271.2 L 351.5 271.7 L 352.8 272.1 L 354.2 272.6 L 355.5 273.1 L 356.9 273.5 L 358.2 274.0 L 359.6 274.4 L 360.9 274.9 L 362.3 275.3 L 363.6 275.8 L 365.0 276.2 L 366.3 276.6 L 367.7 277.0 L 369.1 277.5 L 370.4 277.9 L 371.8 278.3 L 373.1 278.7 L 374.5 279.1 L 375.8 279.5 L 377.2 279.9 L 378.5 280.3 L 379.9 280.7 L 381.2 281.1 L 382.6 281.5 L 383.9 281.8 L 385.3 282.2 L 386.6 282.6 L 388.0 283.0 L 389.3 283.3 L 390.7 283.7 L 392.1 284.1 L 393.4 284.4 L 394.8 284.8 L 396.1 285.1 L 397.5 285.5 L 398.8 285.8 L 400.2 286.2 L 401.5 286.5 L 402.9 286.9 L 404.2 287.2 L 405.6 287.5 L 406.9 287.9 L 408.3 288.2 L 409.6 288.5 L 411.0 288.8 L 412.3 289.2 L 413.7 289.5 L 415.1 289.8 L 416.4 290.1 L 417.8 290.4 L 419.1 290.7 L 420.5 291.0 L 421.8 291.3 L 423.2 291.6 L 424.5 291.9 L 425.9 292.2 L 427.2 292.5 L 428.6 292.8 L 429.9 293.1 L 431.3 293.4 L 432.6 293.7 L 434.0 294.0 L 435.4 294.3 L 436.7 294.5 L 438.1 294.8 L 439.4 295.1 L 440.8 295.4 L 442.1 295.6 L 443.5 295.9 L 444.8 296.2 L 446.2 296.4 L 447.5 296.7 L 448.9 297.0 L 450.2 297.2 L 451.6 297.5 L 452.9 297.7 L 454.3 298.0 L 455.6 298.2 L 457.0 298.5 L 458.4 298.7 L 459.7 299.0 L 461.1 299.2 L 462.4 299.5 L 463.8 299.7 L 465.1 300.0 L 466.5 300.2 L 467.8 300.4 L 469.2 300.7 L 470.5 300.9 L 471.9 301.1 L 473.2 301.4 L 474.6 301.6 L 475.9 301.8 L 477.3 302.1 L 478.6 302.3 L 480.0 302.5" fill="none" stroke="#8A94A6" stroke-width="2.6"/><path d="M 74.1 221.5 L 75.5 221.5 L 76.8 221.5 L 78.2 221.5 L 79.5 221.5 L 80.9 221.5 L 82.2 221.5 L 83.6 221.5 L 84.9 221.5 L 86.3 221.5 L 87.6 221.5 L 89.0 221.5 L 90.3 221.5 L 91.7 221.5 L 93.0 221.5 L 94.4 221.5 L 95.7 221.5 L 97.1 221.5 L 98.5 221.5 L 99.8 221.5 L 101.2 221.5 L 102.5 221.5 L 103.9 221.5 L 105.2 221.5 L 106.6 221.5 L 107.9 221.5 L 109.3 221.5 L 110.6 221.5 L 112.0 221.5 L 113.3 221.5 L 114.7 221.5 L 116.0 221.5 L 117.4 221.5 L 118.7 221.5 L 120.1 221.5 L 121.5 221.5 L 122.8 221.5 L 124.2 221.5 L 125.5 221.5 L 126.9 221.5 L 128.2 221.5 L 129.6 221.5 L 130.9 221.5 L 132.3 221.5 L 133.6 221.5 L 135.0 221.5 L 136.3 221.5 L 137.7 221.5 L 139.0 221.5 L 140.4 221.5 L 141.8 221.5 L 143.1 221.5 L 144.5 221.5 L 145.8 221.5 L 147.2 221.5 L 148.5 221.5 L 149.9 221.5 L 151.2 221.5 L 152.6 221.5 L 153.9 221.5 L 155.3 221.5 L 156.6 221.5 L 158.0 221.5 L 159.3 221.5 L 160.7 221.5 L 162.0 221.5 L 163.4 221.5 L 164.8 221.5 L 166.1 221.5 L 167.5 221.5 L 168.8 221.5 L 170.2 221.5 L 171.5 221.5 L 172.9 221.5 L 174.2 221.5 L 175.6 221.5 L 176.9 221.5 L 178.3 221.5 L 179.6 221.5 L 181.0 221.5 L 182.3 221.5 L 183.7 221.5 L 185.0 221.5 L 186.4 221.5 L 187.8 221.5 L 189.1 221.5 L 190.5 221.5 L 191.8 221.5 L 193.2 221.5 L 194.5 221.5 L 195.9 221.5 L 197.2 221.5 L 198.6 221.5 L 199.9 221.5 L 201.3 221.7 L 202.6 223.2 L 204.0 224.7 L 205.3 226.1 L 206.7 227.6 L 208.0 229.0 L 209.4 230.3 L 210.8 231.7 L 212.1 233.0 L 213.5 234.3 L 214.8 235.6 L 216.2 236.8 L 217.5 238.0 L 218.9 239.2 L 220.2 240.4 L 221.6 241.6 L 222.9 242.7 L 224.3 243.8 L 225.6 244.9 L 227.0 246.0 L 228.3 247.0 L 229.7 248.1 L 231.0 249.1 L 232.4 250.1 L 233.8 251.1 L 235.1 252.1 L 236.5 253.0 L 237.8 254.0 L 239.2 254.9 L 240.5 255.8 L 241.9 256.7 L 243.2 257.6 L 244.6 258.5 L 245.9 259.3 L 247.3 260.2 L 248.6 261.0 L 250.0 261.8 L 251.3 262.6 L 252.7 263.4 L 254.0 264.2 L 255.4 265.0 L 256.8 265.7 L 258.1 266.5 L 259.5 267.2 L 260.8 268.0 L 262.2 268.7 L 263.5 269.4 L 264.9 270.1 L 266.2 270.8 L 267.6 271.5 L 268.9 272.1 L 270.3 272.8 L 271.6 273.4 L 273.0 274.1 L 274.3 274.7 L 275.7 275.3 L 277.1 276.0 L 278.4 276.6 L 279.8 277.2 L 281.1 277.8 L 282.5 278.4 L 283.8 278.9 L 285.2 279.5 L 286.5 280.1 L 287.9 280.6 L 289.2 281.2 L 290.6 281.7 L 291.9 282.3 L 293.3 282.8 L 294.6 283.3 L 296.0 283.8 L 297.3 284.4 L 298.7 284.9 L 300.1 285.4 L 301.4 285.9 L 302.8 286.4 L 304.1 286.8 L 305.5 287.3 L 306.8 287.8 L 308.2 288.3 L 309.5 288.7 L 310.9 289.2 L 312.2 289.6 L 313.6 290.1 L 314.9 290.5 L 316.3 290.9 L 317.6 291.4 L 319.0 291.8 L 320.3 292.2 L 321.7 292.6 L 323.1 293.1 L 324.4 293.5 L 325.8 293.9 L 327.1 294.3 L 328.5 294.7 L 329.8 295.1 L 331.2 295.5 L 332.5 295.8 L 333.9 296.2 L 335.2 296.6 L 336.6 297.0 L 337.9 297.3 L 339.3 297.7 L 340.6 298.1 L 342.0 298.4 L 343.3 298.8 L 344.7 299.1 L 346.1 299.5 L 347.4 299.8 L 348.8 300.2 L 350.1 300.5 L 351.5 300.8 L 352.8 301.2 L 354.2 301.5 L 355.5 301.8 L 356.9 302.1 L 358.2 302.5 L 359.6 302.8 L 360.9 303.1 L 362.3 303.4 L 363.6 303.7 L 365.0 304.0 L 366.3 304.3 L 367.7 304.6 L 369.1 304.9 L 370.4 305.2 L 371.8 305.5 L 373.1 305.8 L 374.5 306.1 L 375.8 306.3 L 377.2 306.6 L 378.5 306.9 L 379.9 307.2 L 381.2 307.4 L 382.6 307.7 L 383.9 308.0 L 385.3 308.2 L 386.6 308.5 L 388.0 308.8 L 389.3 309.0 L 390.7 309.3 L 392.1 309.5 L 393.4 309.8 L 394.8 310.1 L 396.1 310.3 L 397.5 310.5 L 398.8 310.8 L 400.2 311.0 L 401.5 311.3 L 402.9 311.5 L 404.2 311.7 L 405.6 312.0 L 406.9 312.2 L 408.3 312.4 L 409.6 312.7 L 411.0 312.9 L 412.3 313.1 L 413.7 313.4 L 415.1 313.6 L 416.4 313.8 L 417.8 314.0 L 419.1 314.2 L 420.5 314.4 L 421.8 314.7 L 423.2 314.9 L 424.5 315.1 L 425.9 315.3 L 427.2 315.5 L 428.6 315.7 L 429.9 315.9 L 431.3 316.1 L 432.6 316.3 L 434.0 316.5 L 435.4 316.7 L 436.7 316.9 L 438.1 317.1 L 439.4 317.3 L 440.8 317.5 L 442.1 317.7 L 443.5 317.9 L 444.8 318.1 L 446.2 318.2 L 447.5 318.4 L 448.9 318.6 L 450.2 318.8 L 451.6 319.0 L 452.9 319.2 L 454.3 319.3 L 455.6 319.5 L 457.0 319.7 L 458.4 319.9 L 459.7 320.0 L 461.1 320.2 L 462.4 320.4 L 463.8 320.6 L 465.1 320.7 L 466.5 320.9 L 467.8 321.1 L 469.2 321.2 L 470.5 321.4 L 471.9 321.6 L 473.2 321.7 L 474.6 321.9 L 475.9 322.0 L 477.3 322.2 L 478.6 322.4 L 480.0 322.5" fill="none" stroke="#C0392B" stroke-width="2.8"/><rect x="193.0" y="100" width="287.0" height="270" fill="rgba(124,58,237,0.18)" opacity="0.35"/><line x1="193.0" y1="370" x2="193.0" y2="100" stroke="#7C3AED" stroke-width="1.2" stroke-dasharray="4 3"/><text x="201.00" y="114.00" font-family="'Noto Sans CJK TC','Noto Sans TC','Microsoft JhengHei','PingFang TC','Heiti TC',sans-serif" font-size="12" fill="#7C3AED" text-anchor="start" dominant-baseline="middle" font-weight="700">長週期段 → 用 B<tspan dy="3.60" font-size="8.16">1</tspan></text><text x="95.78" y="114.00" font-family="'Noto Sans CJK TC','Noto Sans TC','Microsoft JhengHei','PingFang TC','Heiti TC',sans-serif" font-size="12" fill="#6B7684" text-anchor="start" dominant-baseline="middle" font-weight="400">短週期段 → B<tspan dy="3.60" font-size="8.16">S</tspan></text><line x1="273.7" y1="370" x2="273.7" y2="220.1" stroke="#B45309" stroke-width="1.6" stroke-dasharray="5 4"/><circle cx="273.66" cy="234.11" r="5" fill="#8A94A6" stroke="#FFFFFF" stroke-width="1.6"/><circle cx="273.66" cy="274.40" r="5" fill="#C0392B" stroke="#FFFFFF" stroke-width="1.6"/><text x="283.66" y="222.11" font-family="'Latin Modern Math','Cambria Math','Times New Roman','Nimbus Roman',serif" font-size="12.5" fill="#3F4A5A" text-anchor="start" dominant-baseline="middle" font-weight="700" font-style="italic">0.12/T = 0.1208</text><text x="123.66" y="304.40" font-family="'Latin Modern Math','Cambria Math','Times New Roman','Nimbus Roman',serif" font-size="12.5" fill="#C0392B" text-anchor="start" dominant-baseline="middle" font-weight="700" font-style="italic">÷ B<tspan dy="3.75" font-size="8.5">1</tspan><tspan dy="-3.75" font-size="12.5"> = 0.0850</tspan></text><text x="273.66" y="404.00" font-family="'Latin Modern Math','Cambria Math','Times New Roman','Nimbus Roman',serif" font-size="12.5" fill="#B45309" text-anchor="middle" dominant-baseline="middle" font-weight="700" font-style="italic">T = 0.993</text><line x1="330" y1="142" x2="352" y2="142" stroke="#8A94A6" stroke-width="4" stroke-linecap="round"/><text x="360.00" y="142.00" font-family="'Noto Sans CJK TC','Noto Sans TC','Microsoft JhengHei','PingFang TC','Heiti TC',sans-serif" font-size="12" fill="#6B7684" text-anchor="start" dominant-baseline="middle" font-weight="400">5% 阻尼設計譜</text><line x1="330" y1="162" x2="352" y2="162" stroke="#C0392B" stroke-width="4" stroke-linecap="round"/><text x="360.00" y="162.00" font-family="'Noto Sans CJK TC','Noto Sans TC','Microsoft JhengHei','PingFang TC','Heiti TC',sans-serif" font-size="12" fill="#6B7684" text-anchor="start" dominant-baseline="middle" font-weight="400">β<tspan dy="3.60" font-size="8.16">eff</tspan><tspan dy="-3.60" font-size="12"> 折減譜</tspan></text></g><g transform="translate(520,76)" clip-path="url(#sdclip1)"><rect x="6" y="6" width="508" height="428" rx="14" fill="#F5F7FA" stroke="#E1E6ED" stroke-width="1.2"/><text x="260.00" y="32.00" font-family="'Noto Sans CJK TC','Noto Sans TC','Microsoft JhengHei','PingFang TC','Heiti TC',sans-serif" font-size="15.5" fill="#1F2733" text-anchor="middle" dominant-baseline="middle" font-weight="700">(b) 圖二(b) 阻尼修正係數內插</text><text x="164.37" y="55.00" font-family="'Noto Sans CJK TC','Noto Sans TC','Microsoft JhengHei','PingFang TC','Heiti TC',sans-serif" font-size="12.5" fill="#6B7684" text-anchor="start" dominant-baseline="middle" font-weight="400">β<tspan dy="3.75" font-size="8.5">eff</tspan><tspan dy="-3.75" font-size="12.5"> = 16.86% 介於 10% 與 20% 之間</tspan></text><line x1="80" y1="370" x2="476" y2="370" stroke="#6B7684" stroke-width="1.6"/><line x1="80" y1="370" x2="80" y2="94" stroke="#6B7684" stroke-width="1.6"/><text x="168.64" y="386.00" font-family="'Noto Sans CJK TC','Noto Sans TC','Microsoft JhengHei','PingFang TC','Heiti TC',sans-serif" font-size="11.5" fill="#6B7684" text-anchor="middle" dominant-baseline="middle" font-weight="400">5</text><text x="257.27" y="386.00" font-family="'Noto Sans CJK TC','Noto Sans TC','Microsoft JhengHei','PingFang TC','Heiti TC',sans-serif" font-size="11.5" fill="#6B7684" text-anchor="middle" dominant-baseline="middle" font-weight="400">10</text><text x="345.91" y="386.00" font-family="'Noto Sans CJK TC','Noto Sans TC','Microsoft JhengHei','PingFang TC','Heiti TC',sans-serif" font-size="11.5" fill="#6B7684" text-anchor="middle" dominant-baseline="middle" font-weight="400">15</text><text x="434.55" y="386.00" font-family="'Noto Sans CJK TC','Noto Sans TC','Microsoft JhengHei','PingFang TC','Heiti TC',sans-serif" font-size="11.5" fill="#6B7684" text-anchor="middle" dominant-baseline="middle" font-weight="400">20</text><text x="72.00" y="336.25" font-family="'Noto Sans CJK TC','Noto Sans TC','Microsoft JhengHei','PingFang TC','Heiti TC',sans-serif" font-size="11.5" fill="#6B7684" text-anchor="end" dominant-baseline="middle" font-weight="400">1.0</text><line x1="80" y1="336.2" x2="470" y2="336.2" stroke="#E1E6ED" stroke-width="1"/><text x="72.00" y="268.75" font-family="'Noto Sans CJK TC','Noto Sans TC','Microsoft JhengHei','PingFang TC','Heiti TC',sans-serif" font-size="11.5" fill="#6B7684" text-anchor="end" dominant-baseline="middle" font-weight="400">1.2</text><line x1="80" y1="268.8" x2="470" y2="268.8" stroke="#E1E6ED" stroke-width="1"/><text x="72.00" y="201.25" font-family="'Noto Sans CJK TC','Noto Sans TC','Microsoft JhengHei','PingFang TC','Heiti TC',sans-serif" font-size="11.5" fill="#6B7684" text-anchor="end" dominant-baseline="middle" font-weight="400">1.4</text><line x1="80" y1="201.3" x2="470" y2="201.3" stroke="#E1E6ED" stroke-width="1"/><text x="72.00" y="133.75" font-family="'Noto Sans CJK TC','Noto Sans TC','Microsoft JhengHei','PingFang TC','Heiti TC',sans-serif" font-size="11.5" fill="#6B7684" text-anchor="end" dominant-baseline="middle" font-weight="400">1.6</text><line x1="80" y1="133.7" x2="470" y2="133.7" stroke="#E1E6ED" stroke-width="1"/><text x="421.53" y="404.00" font-family="'Latin Modern Math','Cambria Math','Times New Roman','Nimbus Roman',serif" font-size="13" fill="#6B7684" text-anchor="start" dominant-baseline="middle" font-weight="400" font-style="italic">β<tspan dy="3.90" font-size="8.84">eff</tspan><tspan dy="-3.90" font-size="13"> (%)</tspan></text><path d="M 168.6 336.2 L 257.3 224.9 L 434.5 133.7" fill="none" stroke="#8A94A6" stroke-width="2.2"/><circle cx="168.64" cy="336.25" r="4" fill="#8A94A6" stroke="#FFFFFF" stroke-width="1.6"/><circle cx="257.27" cy="224.87" r="4" fill="#8A94A6" stroke="#FFFFFF" stroke-width="1.6"/><circle cx="434.55" cy="133.75" r="4" fill="#8A94A6" stroke="#FFFFFF" stroke-width="1.6"/><path d="M 168.6 336.2 L 257.3 251.9 L 434.5 167.5" fill="none" stroke="#C0392B" stroke-width="2.8"/><circle cx="168.64" cy="336.25" r="4" fill="#C0392B" stroke="#FFFFFF" stroke-width="1.6"/><circle cx="257.27" cy="251.88" r="4" fill="#C0392B" stroke="#FFFFFF" stroke-width="1.6"/><circle cx="434.55" cy="167.50" r="4" fill="#C0392B" stroke="#FFFFFF" stroke-width="1.6"/><line x1="378.9" y1="370" x2="378.9" y2="162.4" stroke="#B45309" stroke-width="1.6" stroke-dasharray="5 4"/><line x1="80" y1="194.0" x2="378.9" y2="194.0" stroke="#C0392B" stroke-width="1.4" stroke-dasharray="5 4"/><circle cx="378.86" cy="194.01" r="5.5" fill="#FFFFFF" stroke="#C0392B" stroke-width="2.6"/><circle cx="378.86" cy="162.38" r="5.0" fill="#FFFFFF" stroke="#8A94A6" stroke-width="2.4"/><text x="388.86" y="210.01" font-family="'Latin Modern Math','Cambria Math','Times New Roman','Nimbus Roman',serif" font-size="13" fill="#C0392B" text-anchor="start" dominant-baseline="middle" font-weight="700" font-style="italic">B<tspan dy="3.90" font-size="8.84">1</tspan><tspan dy="-3.90" font-size="13"> = 1.421</tspan></text><text x="242.21" y="148.38" font-family="'Noto Sans CJK TC','Noto Sans TC','Microsoft JhengHei','PingFang TC','Heiti TC',sans-serif" font-size="12" fill="#6B7684" text-anchor="start" dominant-baseline="middle" font-weight="400">B<tspan dy="3.60" font-size="8.16">S</tspan><tspan dy="-3.60" font-size="12"> = 1.515（本題不用）</tspan></text><text x="378.86" y="404.00" font-family="'Latin Modern Math','Cambria Math','Times New Roman','Nimbus Roman',serif" font-size="12.5" fill="#B45309" text-anchor="middle" dominant-baseline="middle" font-weight="700" font-style="italic">16.86</text><line x1="110" y1="118" x2="132" y2="118" stroke="#8A94A6" stroke-width="4" stroke-linecap="round"/><text x="140.00" y="118.00" font-family="'Noto Sans CJK TC','Noto Sans TC','Microsoft JhengHei','PingFang TC','Heiti TC',sans-serif" font-size="12" fill="#6B7684" text-anchor="start" dominant-baseline="middle" font-weight="400">B<tspan dy="3.60" font-size="8.16">S</tspan></text><line x1="110" y1="138" x2="132" y2="138" stroke="#C0392B" stroke-width="4" stroke-linecap="round"/><text x="140.00" y="138.00" font-family="'Noto Sans CJK TC','Noto Sans TC','Microsoft JhengHei','PingFang TC','Heiti TC',sans-serif" font-size="12" fill="#6B7684" text-anchor="start" dominant-baseline="middle" font-weight="400">B<tspan dy="3.60" font-size="8.16">1</tspan></text></g><text x="520.0" y="540" font-family="'Noto Sans CJK TC','Noto Sans TC','Microsoft JhengHei','PingFang TC','Heiti TC',sans-serif" font-size="13.5" fill="#6B7684" text-anchor="middle">T = 0.993 s 大於 0.6 s，位於長週期段，只能除以 B1；若誤用 BS，位移會低估約 6%</text></svg>