<svg xmlns="http://www.w3.org/2000/svg" width="880" height="922" viewBox="0 0 880 922"><defs><clipPath id="sdclip0"><rect x="0" y="0" width="880" height="400"/></clipPath><clipPath id="sdclip1"><rect x="0" y="0" width="880" height="400"/></clipPath></defs><rect width="880" height="922" fill="#FFFFFF"/><text x="440.0" y="34" font-family="'Noto Sans CJK TC','Noto Sans TC','Microsoft JhengHei','PingFang TC','Heiti TC',sans-serif" font-size="17.5" fill="#1F2733" text-anchor="middle" font-weight="700">兩個振態的實際形狀（比值由特徵向量算出）</text><text x="440.0" y="58" font-family="'Noto Sans CJK TC','Noto Sans TC','Microsoft JhengHei','PingFang TC','Heiti TC',sans-serif" font-size="13" fill="#6B7684" text-anchor="middle">灰虛線＝平衡位置；正交性檢查：1×1 + (1.618)×(-0.618) = -0.000</text><g transform="translate(0,76)" clip-path="url(#sdclip0)"><rect width="880" height="400" fill="#F5F7FA"/><rect x="6" y="6" width="868" height="388" rx="14" fill="#F5F7FA" stroke="#E1E6ED" stroke-width="1.2"/><text x="440.00" y="32.00" font-family="'Noto Sans CJK TC','Noto Sans TC','Microsoft JhengHei','PingFang TC','Heiti TC',sans-serif" font-size="15.5" fill="#1F2733" text-anchor="middle" dominant-baseline="middle" font-weight="700">Mode 1：ω = 1.377·√(k/m)</text><text x="440.00" y="55.00" font-family="'Noto Sans CJK TC','Noto Sans TC','Microsoft JhengHei','PingFang TC','Heiti TC',sans-serif" font-size="12.5" fill="#6B7684" text-anchor="middle" dominant-baseline="middle" font-weight="400">θ1 : θ2 = 1 : +1.618　（λ = 0.6320）</text><line x1="184.00" y1="95.00" x2="220.00" y2="95.00" stroke="#6B7684" stroke-width="1.8" stroke-linecap="round" opacity="1.0"/><line x1="186.00" y1="95.00" x2="180.00" y2="86.00" stroke="#6B7684" stroke-width="1.3" stroke-linecap="round" opacity="1.0"/><line x1="194.00" y1="95.00" x2="188.00" y2="86.00" stroke="#6B7684" stroke-width="1.3" stroke-linecap="round" opacity="1.0"/><line x1="202.00" y1="95.00" x2="196.00" y2="86.00" stroke="#6B7684" stroke-width="1.3" stroke-linecap="round" opacity="1.0"/><line x1="210.00" y1="95.00" x2="204.00" y2="86.00" stroke="#6B7684" stroke-width="1.3" stroke-linecap="round" opacity="1.0"/><line x1="218.00" y1="95.00" x2="212.00" y2="86.00" stroke="#6B7684" stroke-width="1.3" stroke-linecap="round" opacity="1.0"/><line x1="294.00" y1="95.00" x2="330.00" y2="95.00" stroke="#6B7684" stroke-width="1.8" stroke-linecap="round" opacity="1.0"/><line x1="296.00" y1="95.00" x2="290.00" y2="86.00" stroke="#6B7684" stroke-width="1.3" stroke-linecap="round" opacity="1.0"/><line x1="304.00" y1="95.00" x2="298.00" y2="86.00" stroke="#6B7684" stroke-width="1.3" stroke-linecap="round" opacity="1.0"/><line x1="312.00" y1="95.00" x2="306.00" y2="86.00" stroke="#6B7684" stroke-width="1.3" stroke-linecap="round" opacity="1.0"/><line x1="320.00" y1="95.00" x2="314.00" y2="86.00" stroke="#6B7684" stroke-width="1.3" stroke-linecap="round" opacity="1.0"/><line x1="328.00" y1="95.00" x2="322.00" y2="86.00" stroke="#6B7684" stroke-width="1.3" stroke-linecap="round" opacity="1.0"/><line x1="424.00" y1="95.00" x2="460.00" y2="95.00" stroke="#6B7684" stroke-width="1.8" stroke-linecap="round" opacity="1.0"/><line x1="426.00" y1="95.00" x2="420.00" y2="86.00" stroke="#6B7684" stroke-width="1.3" stroke-linecap="round" opacity="1.0"/><line x1="434.00" y1="95.00" x2="428.00" y2="86.00" stroke="#6B7684" stroke-width="1.3" stroke-linecap="round" opacity="1.0"/><line x1="442.00" y1="95.00" x2="436.00" y2="86.00" stroke="#6B7684" stroke-width="1.3" stroke-linecap="round" opacity="1.0"/><line x1="450.00" y1="95.00" x2="444.00" y2="86.00" stroke="#6B7684" stroke-width="1.3" stroke-linecap="round" opacity="1.0"/><line x1="458.00" y1="95.00" x2="452.00" y2="86.00" stroke="#6B7684" stroke-width="1.3" stroke-linecap="round" opacity="1.0"/><polyline points="202.00,95.00 202.00,101.43 208.00,107.86 196.00,120.71 208.00,133.57 196.00,146.43 208.00,159.29 196.00,172.14 202.00,178.57 202.00,185.00" fill="none" stroke="#C3CAD5" stroke-width="1.8" stroke-linecap="round" stroke-linejoin="round" opacity="1.0"/><polyline points="312.00,95.00 312.00,100.00 318.00,105.00 306.00,115.00 318.00,125.00 306.00,135.00 318.00,145.00 306.00,155.00 318.00,165.00 306.00,175.00 312.00,180.00 312.00,185.00" fill="none" stroke="#C3CAD5" stroke-width="1.8" stroke-linecap="round" stroke-linejoin="round" opacity="1.0"/><polyline points="312.00,185.00 313.67,195.00 321.25,204.01 312.75,225.99 327.92,244.01 319.41,265.99 334.59,284.01 330.33,295.00 332.00,305.00" fill="none" stroke="#C3CAD5" stroke-width="1.8" stroke-linecap="round" stroke-linejoin="round" opacity="1.0"/><polyline points="442.00,95.00 442.00,103.08 448.00,111.15 436.00,127.31 448.00,143.46 436.00,159.62 448.00,175.77 436.00,191.92 448.00,208.08 436.00,224.23 448.00,240.38 436.00,256.54 448.00,272.69 436.00,288.85 442.00,296.92 442.00,305.00" fill="none" stroke="#C3CAD5" stroke-width="1.8" stroke-linecap="round" stroke-linejoin="round" opacity="1.0"/><polyline points="92.00,185.00 312.00,185.00" fill="none" stroke="#C3CAD5" stroke-width="3.0" stroke-linecap="round" stroke-linejoin="round" opacity="1.0"/><polyline points="332.00,305.00 552.00,305.00" fill="none" stroke="#C3CAD5" stroke-width="3.0" stroke-linecap="round" stroke-linejoin="round" opacity="1.0"/><polygon points="92.00,185.00 109.25,195.80 109.25,174.20" fill="none" stroke="#C3CAD5" stroke-width="2.6" stroke-linejoin="round"/><line x1="109.25" y1="203.75" x2="109.25" y2="166.25" stroke="#C3CAD5" stroke-width="2.6" stroke-linecap="round"/><line x1="109.25" y1="202.44" x2="117.25" y2="209.44" stroke="#C3CAD5" stroke-width="1.8" stroke-linecap="round"/><line x1="109.25" y1="193.72" x2="117.25" y2="200.72" stroke="#C3CAD5" stroke-width="1.8" stroke-linecap="round"/><line x1="109.25" y1="185.00" x2="117.25" y2="192.00" stroke="#C3CAD5" stroke-width="1.8" stroke-linecap="round"/><line x1="109.25" y1="176.28" x2="117.25" y2="183.28" stroke="#C3CAD5" stroke-width="1.8" stroke-linecap="round"/><line x1="109.25" y1="167.56" x2="117.25" y2="174.56" stroke="#C3CAD5" stroke-width="1.8" stroke-linecap="round"/><polygon points="552.00,305.00 534.75,294.20 534.75,315.80" fill="none" stroke="#C3CAD5" stroke-width="2.6" stroke-linejoin="round"/><line x1="534.75" y1="286.25" x2="534.75" y2="323.75" stroke="#C3CAD5" stroke-width="2.6" stroke-linecap="round"/><line x1="534.75" y1="287.56" x2="526.75" y2="280.56" stroke="#C3CAD5" stroke-width="1.8" stroke-linecap="round"/><line x1="534.75" y1="296.28" x2="526.75" y2="289.28" stroke="#C3CAD5" stroke-width="1.8" stroke-linecap="round"/><line x1="534.75" y1="305.00" x2="526.75" y2="298.00" stroke="#C3CAD5" stroke-width="1.8" stroke-linecap="round"/><line x1="534.75" y1="313.72" x2="526.75" y2="306.72" stroke="#C3CAD5" stroke-width="1.8" stroke-linecap="round"/><line x1="534.75" y1="322.44" x2="526.75" y2="315.44" stroke="#C3CAD5" stroke-width="1.8" stroke-linecap="round"/><line x1="184.00" y1="95.00" x2="220.00" y2="95.00" stroke="#6B7684" stroke-width="1.8" stroke-linecap="round" opacity="1.0"/><line x1="186.00" y1="95.00" x2="180.00" y2="86.00" stroke="#6B7684" stroke-width="1.3" stroke-linecap="round" opacity="1.0"/><line x1="194.00" y1="95.00" x2="188.00" y2="86.00" stroke="#6B7684" stroke-width="1.3" stroke-linecap="round" opacity="1.0"/><line x1="202.00" y1="95.00" x2="196.00" y2="86.00" stroke="#6B7684" stroke-width="1.3" stroke-linecap="round" opacity="1.0"/><line x1="210.00" y1="95.00" x2="204.00" y2="86.00" stroke="#6B7684" stroke-width="1.3" stroke-linecap="round" opacity="1.0"/><line x1="218.00" y1="95.00" x2="212.00" y2="86.00" stroke="#6B7684" stroke-width="1.3" stroke-linecap="round" opacity="1.0"/><line x1="294.00" y1="95.00" x2="330.00" y2="95.00" stroke="#6B7684" stroke-width="1.8" stroke-linecap="round" opacity="1.0"/><line x1="296.00" y1="95.00" x2="290.00" y2="86.00" stroke="#6B7684" stroke-width="1.3" stroke-linecap="round" opacity="1.0"/><line x1="304.00" y1="95.00" x2="298.00" y2="86.00" stroke="#6B7684" stroke-width="1.3" stroke-linecap="round" opacity="1.0"/><line x1="312.00" y1="95.00" x2="306.00" y2="86.00" stroke="#6B7684" stroke-width="1.3" stroke-linecap="round" opacity="1.0"/><line x1="320.00" y1="95.00" x2="314.00" y2="86.00" stroke="#6B7684" stroke-width="1.3" stroke-linecap="round" opacity="1.0"/><line x1="328.00" y1="95.00" x2="322.00" y2="86.00" stroke="#6B7684" stroke-width="1.3" stroke-linecap="round" opacity="1.0"/><line x1="424.00" y1="95.00" x2="460.00" y2="95.00" stroke="#6B7684" stroke-width="1.8" stroke-linecap="round" opacity="1.0"/><line x1="426.00" y1="95.00" x2="420.00" y2="86.00" stroke="#6B7684" stroke-width="1.3" stroke-linecap="round" opacity="1.0"/><line x1="434.00" y1="95.00" x2="428.00" y2="86.00" stroke="#6B7684" stroke-width="1.3" stroke-linecap="round" opacity="1.0"/><line x1="442.00" y1="95.00" x2="436.00" y2="86.00" stroke="#6B7684" stroke-width="1.3" stroke-linecap="round" opacity="1.0"/><line x1="450.00" y1="95.00" x2="444.00" y2="86.00" stroke="#6B7684" stroke-width="1.3" stroke-linecap="round" opacity="1.0"/><line x1="458.00" y1="95.00" x2="452.00" y2="86.00" stroke="#6B7684" stroke-width="1.3" stroke-linecap="round" opacity="1.0"/><polyline points="202.00,95.00 202.00,102.86 208.00,110.71 196.00,126.43 208.00,142.14 196.00,157.86 208.00,173.57 196.00,189.29 202.00,197.14 202.00,205.00" fill="none" stroke="#6B7684" stroke-width="1.8" stroke-linecap="round" stroke-linejoin="round" opacity="1.0"/><polyline points="312.00,95.00 312.00,102.22 318.00,109.44 306.00,123.89 318.00,138.33 306.00,152.78 318.00,167.22 306.00,181.67 318.00,196.11 306.00,210.56 312.00,217.78 312.00,225.00" fill="none" stroke="#6B7684" stroke-width="1.8" stroke-linecap="round" stroke-linejoin="round" opacity="1.0"/><polyline points="312.00,225.00 313.67,237.06 321.28,248.30 312.72,274.06 327.94,296.54 319.39,322.30 334.61,344.78 330.33,357.66 332.00,369.72" fill="none" stroke="#B45309" stroke-width="1.8" stroke-linecap="round" stroke-linejoin="round" opacity="1.0"/><polyline points="442.00,95.00 442.00,104.32 448.00,113.64 436.00,132.29 448.00,150.93 436.00,169.57 448.00,188.22 436.00,206.86 448.00,225.50 436.00,244.15 448.00,262.79 436.00,281.43 448.00,300.07 436.00,318.72 442.00,328.04 442.00,337.36" fill="none" stroke="#6B7684" stroke-width="1.8" stroke-linecap="round" stroke-linejoin="round" opacity="1.0"/><polyline points="92.00,185.00 312.00,225.00" fill="none" stroke="#1D4ED8" stroke-width="8.0" stroke-linecap="round" stroke-linejoin="round" opacity="1.0"/><polyline points="332.00,369.72 552.00,305.00" fill="none" stroke="#1D4ED8" stroke-width="8.0" stroke-linecap="round" stroke-linejoin="round" opacity="1.0"/><polygon points="92.00,185.00 109.25,195.80 109.25,174.20" fill="none" stroke="#1D4ED8" stroke-width="2.6" stroke-linejoin="round"/><line x1="109.25" y1="203.75" x2="109.25" y2="166.25" stroke="#1D4ED8" stroke-width="2.6" stroke-linecap="round"/><line x1="109.25" y1="202.44" x2="117.25" y2="209.44" stroke="#1D4ED8" stroke-width="1.8" stroke-linecap="round"/><line x1="109.25" y1="193.72" x2="117.25" y2="200.72" stroke="#1D4ED8" stroke-width="1.8" stroke-linecap="round"/><line x1="109.25" y1="185.00" x2="117.25" y2="192.00" stroke="#1D4ED8" stroke-width="1.8" stroke-linecap="round"/><line x1="109.25" y1="176.28" x2="117.25" y2="183.28" stroke="#1D4ED8" stroke-width="1.8" stroke-linecap="round"/><line x1="109.25" y1="167.56" x2="117.25" y2="174.56" stroke="#1D4ED8" stroke-width="1.8" stroke-linecap="round"/><polygon points="552.00,305.00 534.75,294.20 534.75,315.80" fill="none" stroke="#1D4ED8" stroke-width="2.6" stroke-linejoin="round"/><line x1="534.75" y1="286.25" x2="534.75" y2="323.75" stroke="#1D4ED8" stroke-width="2.6" stroke-linecap="round"/><line x1="534.75" y1="287.56" x2="526.75" y2="280.56" stroke="#1D4ED8" stroke-width="1.8" stroke-linecap="round"/><line x1="534.75" y1="296.28" x2="526.75" y2="289.28" stroke="#1D4ED8" stroke-width="1.8" stroke-linecap="round"/><line x1="534.75" y1="305.00" x2="526.75" y2="298.00" stroke="#1D4ED8" stroke-width="1.8" stroke-linecap="round"/><line x1="534.75" y1="313.72" x2="526.75" y2="306.72" stroke="#1D4ED8" stroke-width="1.8" stroke-linecap="round"/><line x1="534.75" y1="322.44" x2="526.75" y2="315.44" stroke="#1D4ED8" stroke-width="1.8" stroke-linecap="round"/><text x="348.00" y="297.36" font-family="'Noto Sans CJK TC','Noto Sans TC','Microsoft JhengHei','PingFang TC','Heiti TC',sans-serif" font-size="13.5" fill="#B45309" text-anchor="start" dominant-baseline="middle" font-weight="700">伸長 0.618 l</text><text x="104.00" y="155.00" font-family="'Latin Modern Math','Cambria Math','Times New Roman','Nimbus Roman',serif" font-size="15" fill="#1D4ED8" text-anchor="start" dominant-baseline="middle" font-weight="700" font-style="italic">θ<tspan dy="4.50" font-size="10.2">1</tspan><tspan dy="-4.50" font-size="15"> = 1</tspan></text><text x="476.00" y="429.72" font-family="'Latin Modern Math','Cambria Math','Times New Roman','Nimbus Roman',serif" font-size="15" fill="#1D4ED8" text-anchor="start" dominant-baseline="middle" font-weight="700" font-style="italic">θ<tspan dy="4.50" font-size="10.2">2</tspan><tspan dy="-4.50" font-size="15"> = +1.618</tspan></text></g><g transform="translate(0,476)" clip-path="url(#sdclip1)"><rect width="880" height="400" fill="#F5F7FA"/><rect x="6" y="6" width="868" height="388" rx="14" fill="#F5F7FA" stroke="#E1E6ED" stroke-width="1.2"/><text x="440.00" y="32.00" font-family="'Noto Sans CJK TC','Noto Sans TC','Microsoft JhengHei','PingFang TC','Heiti TC',sans-serif" font-size="15.5" fill="#1F2733" text-anchor="middle" dominant-baseline="middle" font-weight="700">Mode 2：ω = 2.933·√(k/m)</text><text x="440.00" y="55.00" font-family="'Noto Sans CJK TC','Noto Sans TC','Microsoft JhengHei','PingFang TC','Heiti TC',sans-serif" font-size="12.5" fill="#6B7684" text-anchor="middle" dominant-baseline="middle" font-weight="400">θ1 : θ2 = 1 : -0.618　（λ = 2.8680）</text><line x1="184.00" y1="95.00" x2="220.00" y2="95.00" stroke="#6B7684" stroke-width="1.8" stroke-linecap="round" opacity="1.0"/><line x1="186.00" y1="95.00" x2="180.00" y2="86.00" stroke="#6B7684" stroke-width="1.3" stroke-linecap="round" opacity="1.0"/><line x1="194.00" y1="95.00" x2="188.00" y2="86.00" stroke="#6B7684" stroke-width="1.3" stroke-linecap="round" opacity="1.0"/><line x1="202.00" y1="95.00" x2="196.00" y2="86.00" stroke="#6B7684" stroke-width="1.3" stroke-linecap="round" opacity="1.0"/><line x1="210.00" y1="95.00" x2="204.00" y2="86.00" stroke="#6B7684" stroke-width="1.3" stroke-linecap="round" opacity="1.0"/><line x1="218.00" y1="95.00" x2="212.00" y2="86.00" stroke="#6B7684" stroke-width="1.3" stroke-linecap="round" opacity="1.0"/><line x1="294.00" y1="95.00" x2="330.00" y2="95.00" stroke="#6B7684" stroke-width="1.8" stroke-linecap="round" opacity="1.0"/><line x1="296.00" y1="95.00" x2="290.00" y2="86.00" stroke="#6B7684" stroke-width="1.3" stroke-linecap="round" opacity="1.0"/><line x1="304.00" y1="95.00" x2="298.00" y2="86.00" stroke="#6B7684" stroke-width="1.3" stroke-linecap="round" opacity="1.0"/><line x1="312.00" y1="95.00" x2="306.00" y2="86.00" stroke="#6B7684" stroke-width="1.3" stroke-linecap="round" opacity="1.0"/><line x1="320.00" y1="95.00" x2="314.00" y2="86.00" stroke="#6B7684" stroke-width="1.3" stroke-linecap="round" opacity="1.0"/><line x1="328.00" y1="95.00" x2="322.00" y2="86.00" stroke="#6B7684" stroke-width="1.3" stroke-linecap="round" opacity="1.0"/><line x1="424.00" y1="95.00" x2="460.00" y2="95.00" stroke="#6B7684" stroke-width="1.8" stroke-linecap="round" opacity="1.0"/><line x1="426.00" y1="95.00" x2="420.00" y2="86.00" stroke="#6B7684" stroke-width="1.3" stroke-linecap="round" opacity="1.0"/><line x1="434.00" y1="95.00" x2="428.00" y2="86.00" stroke="#6B7684" stroke-width="1.3" stroke-linecap="round" opacity="1.0"/><line x1="442.00" y1="95.00" x2="436.00" y2="86.00" stroke="#6B7684" stroke-width="1.3" stroke-linecap="round" opacity="1.0"/><line x1="450.00" y1="95.00" x2="444.00" y2="86.00" stroke="#6B7684" stroke-width="1.3" stroke-linecap="round" opacity="1.0"/><line x1="458.00" y1="95.00" x2="452.00" y2="86.00" stroke="#6B7684" stroke-width="1.3" stroke-linecap="round" opacity="1.0"/><polyline points="202.00,95.00 202.00,101.43 208.00,107.86 196.00,120.71 208.00,133.57 196.00,146.43 208.00,159.29 196.00,172.14 202.00,178.57 202.00,185.00" fill="none" stroke="#C3CAD5" stroke-width="1.8" stroke-linecap="round" stroke-linejoin="round" opacity="1.0"/><polyline points="312.00,95.00 312.00,100.00 318.00,105.00 306.00,115.00 318.00,125.00 306.00,135.00 318.00,145.00 306.00,155.00 318.00,165.00 306.00,175.00 312.00,180.00 312.00,185.00" fill="none" stroke="#C3CAD5" stroke-width="1.8" stroke-linecap="round" stroke-linejoin="round" opacity="1.0"/><polyline points="312.00,185.00 313.67,195.00 321.25,204.01 312.75,225.99 327.92,244.01 319.41,265.99 334.59,284.01 330.33,295.00 332.00,305.00" fill="none" stroke="#C3CAD5" stroke-width="1.8" stroke-linecap="round" stroke-linejoin="round" opacity="1.0"/><polyline points="442.00,95.00 442.00,103.08 448.00,111.15 436.00,127.31 448.00,143.46 436.00,159.62 448.00,175.77 436.00,191.92 448.00,208.08 436.00,224.23 448.00,240.38 436.00,256.54 448.00,272.69 436.00,288.85 442.00,296.92 442.00,305.00" fill="none" stroke="#C3CAD5" stroke-width="1.8" stroke-linecap="round" stroke-linejoin="round" opacity="1.0"/><polyline points="92.00,185.00 312.00,185.00" fill="none" stroke="#C3CAD5" stroke-width="3.0" stroke-linecap="round" stroke-linejoin="round" opacity="1.0"/><polyline points="332.00,305.00 552.00,305.00" fill="none" stroke="#C3CAD5" stroke-width="3.0" stroke-linecap="round" stroke-linejoin="round" opacity="1.0"/><polygon points="92.00,185.00 109.25,195.80 109.25,174.20" fill="none" stroke="#C3CAD5" stroke-width="2.6" stroke-linejoin="round"/><line x1="109.25" y1="203.75" x2="109.25" y2="166.25" stroke="#C3CAD5" stroke-width="2.6" stroke-linecap="round"/><line x1="109.25" y1="202.44" x2="117.25" y2="209.44" stroke="#C3CAD5" stroke-width="1.8" stroke-linecap="round"/><line x1="109.25" y1="193.72" x2="117.25" y2="200.72" stroke="#C3CAD5" stroke-width="1.8" stroke-linecap="round"/><line x1="109.25" y1="185.00" x2="117.25" y2="192.00" stroke="#C3CAD5" stroke-width="1.8" stroke-linecap="round"/><line x1="109.25" y1="176.28" x2="117.25" y2="183.28" stroke="#C3CAD5" stroke-width="1.8" stroke-linecap="round"/><line x1="109.25" y1="167.56" x2="117.25" y2="174.56" stroke="#C3CAD5" stroke-width="1.8" stroke-linecap="round"/><polygon points="552.00,305.00 534.75,294.20 534.75,315.80" fill="none" stroke="#C3CAD5" stroke-width="2.6" stroke-linejoin="round"/><line x1="534.75" y1="286.25" x2="534.75" y2="323.75" stroke="#C3CAD5" stroke-width="2.6" stroke-linecap="round"/><line x1="534.75" y1="287.56" x2="526.75" y2="280.56" stroke="#C3CAD5" stroke-width="1.8" stroke-linecap="round"/><line x1="534.75" y1="296.28" x2="526.75" y2="289.28" stroke="#C3CAD5" stroke-width="1.8" stroke-linecap="round"/><line x1="534.75" y1="305.00" x2="526.75" y2="298.00" stroke="#C3CAD5" stroke-width="1.8" stroke-linecap="round"/><line x1="534.75" y1="313.72" x2="526.75" y2="306.72" stroke="#C3CAD5" stroke-width="1.8" stroke-linecap="round"/><line x1="534.75" y1="322.44" x2="526.75" y2="315.44" stroke="#C3CAD5" stroke-width="1.8" stroke-linecap="round"/><line x1="184.00" y1="95.00" x2="220.00" y2="95.00" stroke="#6B7684" stroke-width="1.8" stroke-linecap="round" opacity="1.0"/><line x1="186.00" y1="95.00" x2="180.00" y2="86.00" stroke="#6B7684" stroke-width="1.3" stroke-linecap="round" opacity="1.0"/><line x1="194.00" y1="95.00" x2="188.00" y2="86.00" stroke="#6B7684" stroke-width="1.3" stroke-linecap="round" opacity="1.0"/><line x1="202.00" y1="95.00" x2="196.00" y2="86.00" stroke="#6B7684" stroke-width="1.3" stroke-linecap="round" opacity="1.0"/><line x1="210.00" y1="95.00" x2="204.00" y2="86.00" stroke="#6B7684" stroke-width="1.3" stroke-linecap="round" opacity="1.0"/><line x1="218.00" y1="95.00" x2="212.00" y2="86.00" stroke="#6B7684" stroke-width="1.3" stroke-linecap="round" opacity="1.0"/><line x1="294.00" y1="95.00" x2="330.00" y2="95.00" stroke="#6B7684" stroke-width="1.8" stroke-linecap="round" opacity="1.0"/><line x1="296.00" y1="95.00" x2="290.00" y2="86.00" stroke="#6B7684" stroke-width="1.3" stroke-linecap="round" opacity="1.0"/><line x1="304.00" y1="95.00" x2="298.00" y2="86.00" stroke="#6B7684" stroke-width="1.3" stroke-linecap="round" opacity="1.0"/><line x1="312.00" y1="95.00" x2="306.00" y2="86.00" stroke="#6B7684" stroke-width="1.3" stroke-linecap="round" opacity="1.0"/><line x1="320.00" y1="95.00" x2="314.00" y2="86.00" stroke="#6B7684" stroke-width="1.3" stroke-linecap="round" opacity="1.0"/><line x1="328.00" y1="95.00" x2="322.00" y2="86.00" stroke="#6B7684" stroke-width="1.3" stroke-linecap="round" opacity="1.0"/><line x1="424.00" y1="95.00" x2="460.00" y2="95.00" stroke="#6B7684" stroke-width="1.8" stroke-linecap="round" opacity="1.0"/><line x1="426.00" y1="95.00" x2="420.00" y2="86.00" stroke="#6B7684" stroke-width="1.3" stroke-linecap="round" opacity="1.0"/><line x1="434.00" y1="95.00" x2="428.00" y2="86.00" stroke="#6B7684" stroke-width="1.3" stroke-linecap="round" opacity="1.0"/><line x1="442.00" y1="95.00" x2="436.00" y2="86.00" stroke="#6B7684" stroke-width="1.3" stroke-linecap="round" opacity="1.0"/><line x1="450.00" y1="95.00" x2="444.00" y2="86.00" stroke="#6B7684" stroke-width="1.3" stroke-linecap="round" opacity="1.0"/><line x1="458.00" y1="95.00" x2="452.00" y2="86.00" stroke="#6B7684" stroke-width="1.3" stroke-linecap="round" opacity="1.0"/><polyline points="202.00,95.00 202.00,102.86 208.00,110.71 196.00,126.43 208.00,142.14 196.00,157.86 208.00,173.57 196.00,189.29 202.00,197.14 202.00,205.00" fill="none" stroke="#6B7684" stroke-width="1.8" stroke-linecap="round" stroke-linejoin="round" opacity="1.0"/><polyline points="312.00,95.00 312.00,102.22 318.00,109.44 306.00,123.89 318.00,138.33 306.00,152.78 318.00,167.22 306.00,181.67 318.00,196.11 306.00,210.56 312.00,217.78 312.00,225.00" fill="none" stroke="#6B7684" stroke-width="1.8" stroke-linecap="round" stroke-linejoin="round" opacity="1.0"/><polyline points="312.00,225.00 313.67,229.61 320.98,232.17 313.02,245.47 327.64,250.60 319.69,263.89 334.31,269.02 330.33,275.67 332.00,280.28" fill="none" stroke="#B45309" stroke-width="1.8" stroke-linecap="round" stroke-linejoin="round" opacity="1.0"/><polyline points="442.00,95.00 442.00,102.60 448.00,110.20 436.00,125.41 448.00,140.61 436.00,155.81 448.00,171.02 436.00,186.22 448.00,201.42 436.00,216.62 448.00,231.83 436.00,247.03 448.00,262.23 436.00,277.44 442.00,285.04 442.00,292.64" fill="none" stroke="#6B7684" stroke-width="1.8" stroke-linecap="round" stroke-linejoin="round" opacity="1.0"/><polyline points="92.00,185.00 312.00,225.00" fill="none" stroke="#1D4ED8" stroke-width="8.0" stroke-linecap="round" stroke-linejoin="round" opacity="1.0"/><polyline points="332.00,280.28 552.00,305.00" fill="none" stroke="#1D4ED8" stroke-width="8.0" stroke-linecap="round" stroke-linejoin="round" opacity="1.0"/><polygon points="92.00,185.00 109.25,195.80 109.25,174.20" fill="none" stroke="#1D4ED8" stroke-width="2.6" stroke-linejoin="round"/><line x1="109.25" y1="203.75" x2="109.25" y2="166.25" stroke="#1D4ED8" stroke-width="2.6" stroke-linecap="round"/><line x1="109.25" y1="202.44" x2="117.25" y2="209.44" stroke="#1D4ED8" stroke-width="1.8" stroke-linecap="round"/><line x1="109.25" y1="193.72" x2="117.25" y2="200.72" stroke="#1D4ED8" stroke-width="1.8" stroke-linecap="round"/><line x1="109.25" y1="185.00" x2="117.25" y2="192.00" stroke="#1D4ED8" stroke-width="1.8" stroke-linecap="round"/><line x1="109.25" y1="176.28" x2="117.25" y2="183.28" stroke="#1D4ED8" stroke-width="1.8" stroke-linecap="round"/><line x1="109.25" y1="167.56" x2="117.25" y2="174.56" stroke="#1D4ED8" stroke-width="1.8" stroke-linecap="round"/><polygon points="552.00,305.00 534.75,294.20 534.75,315.80" fill="none" stroke="#1D4ED8" stroke-width="2.6" stroke-linejoin="round"/><line x1="534.75" y1="286.25" x2="534.75" y2="323.75" stroke="#1D4ED8" stroke-width="2.6" stroke-linecap="round"/><line x1="534.75" y1="287.56" x2="526.75" y2="280.56" stroke="#1D4ED8" stroke-width="1.8" stroke-linecap="round"/><line x1="534.75" y1="296.28" x2="526.75" y2="289.28" stroke="#1D4ED8" stroke-width="1.8" stroke-linecap="round"/><line x1="534.75" y1="305.00" x2="526.75" y2="298.00" stroke="#1D4ED8" stroke-width="1.8" stroke-linecap="round"/><line x1="534.75" y1="313.72" x2="526.75" y2="306.72" stroke="#1D4ED8" stroke-width="1.8" stroke-linecap="round"/><line x1="534.75" y1="322.44" x2="526.75" y2="315.44" stroke="#1D4ED8" stroke-width="1.8" stroke-linecap="round"/><text x="348.00" y="252.64" font-family="'Noto Sans CJK TC','Noto Sans TC','Microsoft JhengHei','PingFang TC','Heiti TC',sans-serif" font-size="13.5" fill="#B45309" text-anchor="start" dominant-baseline="middle" font-weight="700">壓縮 1.618 l</text><text x="104.00" y="155.00" font-family="'Latin Modern Math','Cambria Math','Times New Roman','Nimbus Roman',serif" font-size="15" fill="#1D4ED8" text-anchor="start" dominant-baseline="middle" font-weight="700" font-style="italic">θ<tspan dy="4.50" font-size="10.2">1</tspan><tspan dy="-4.50" font-size="15"> = 1</tspan></text><text x="476.00" y="340.28" font-family="'Latin Modern Math','Cambria Math','Times New Roman','Nimbus Roman',serif" font-size="15" fill="#1D4ED8" text-anchor="start" dominant-baseline="middle" font-weight="700" font-style="italic">θ<tspan dy="4.50" font-size="10.2">2</tspan><tspan dy="-4.50" font-size="15"> = -0.618</tspan></text></g><text x="440.0" y="900" font-family="'Noto Sans CJK TC','Noto Sans TC','Microsoft JhengHei','PingFang TC','Heiti TC',sans-serif" font-size="13.5" fill="#6B7684" text-anchor="middle">振態不是 {1, 1} 與 {1, -1}——那是「上梁少一根簧」時才會出現的對稱解；此處為黃金比例 (1±√5)/2，ω2/ω1 = 2.13 而非 3</text></svg>